<?xml version="1.0" encoding="utf-8"?>
<!-- Generator: Adobe Illustrator 16.0.0, SVG Export Plug-In . SVG Version: 6.00 Build 0)  -->
<!DOCTYPE svg PUBLIC "-//W3C//DTD SVG 1.1//EN" "http://www.w3.org/Graphics/SVG/1.1/DTD/svg11.dtd">
<svg version="1.1" id="artwork" xmlns="http://www.w3.org/2000/svg" xmlns:xlink="http://www.w3.org/1999/xlink" x="0px" y="0px"
	 width="135px" height="40px" viewBox="0 0 135 40" enable-background="new 0 0 135 40" xml:space="preserve">
<g id="_Group_">
	<g id="_Group_2">
		<g id="_Group_3">
			<path id="_Path_" fill="#FFFFFF" d="M31.06,20.315c0.022-1.752,0.941-3.371,2.433-4.288c-0.946-1.351-2.473-2.176-4.122-2.228
				c-1.734-0.182-3.415,1.038-4.299,1.038c-0.9,0-2.261-1.02-3.726-0.989c-1.928,0.063-3.681,1.131-4.619,2.817
				C14.73,20.122,16.22,25.204,18.132,28c0.958,1.368,2.076,2.896,3.54,2.842c1.432-0.058,1.967-0.913,3.696-0.913
				c1.713,0,2.215,0.913,3.708,0.878c1.537-0.024,2.506-1.374,3.429-2.755c0.688-0.976,1.217-2.053,1.568-3.195
				C32.249,24.086,31.062,22.298,31.06,20.315z"/>
			<path id="_Path_2" fill="#FFFFFF" d="M28.238,11.961c0.838-1.006,1.251-2.299,1.151-3.605c-1.28,0.135-2.463,0.746-3.313,1.714
				c-0.839,0.955-1.264,2.203-1.182,3.471C26.194,13.555,27.425,12.972,28.238,11.961z"/>
		</g>
	</g>
	<g>
		<path fill="#FFFFFF" d="M49.165,27.377h-4.888l-1.174,3.466h-2.07l4.63-12.824h2.151l4.63,12.824h-2.106L49.165,27.377z
			 M44.784,25.778h3.875l-1.91-5.625h-0.054L44.784,25.778z"/>
		<path fill="#FFFFFF" d="M62.442,26.169c0,2.905-1.555,4.772-3.901,4.772c-1.213,0.063-2.356-0.572-2.942-1.636h-0.044v4.631
			h-1.919V21.494h1.857v1.555h0.036c0.612-1.058,1.756-1.692,2.977-1.653C60.878,21.396,62.442,23.272,62.442,26.169z M60.47,26.169
			c0-1.893-0.979-3.137-2.471-3.137c-1.466,0-2.453,1.271-2.453,3.137c0,1.884,0.986,3.146,2.453,3.146
			C59.492,29.315,60.47,28.079,60.47,26.169z"/>
		<path fill="#FFFFFF" d="M72.733,26.169c0,2.905-1.556,4.772-3.903,4.772c-1.212,0.063-2.354-0.572-2.94-1.636h-0.044v4.631h-1.92
			V21.494h1.857v1.555h0.035c0.613-1.058,1.756-1.692,2.979-1.653C71.168,21.396,72.733,23.272,72.733,26.169z M70.761,26.169
			c0-1.893-0.978-3.137-2.471-3.137c-1.467,0-2.453,1.271-2.453,3.137c0,1.884,0.986,3.146,2.453,3.146
			C69.783,29.315,70.761,28.079,70.761,26.169L70.761,26.169z"/>
		<path fill="#FFFFFF" d="M79.534,27.271c0.141,1.271,1.377,2.107,3.065,2.107c1.617,0,2.781-0.835,2.781-1.982
			c0-0.995-0.702-1.591-2.364-2l-1.661-0.4c-2.356-0.569-3.449-1.67-3.449-3.457c0-2.212,1.928-3.732,4.667-3.732
			c2.709,0,4.566,1.52,4.629,3.732h-1.937c-0.117-1.28-1.174-2.052-2.721-2.052c-1.545,0-2.604,0.782-2.604,1.919
			c0,0.907,0.676,1.44,2.329,1.849l1.412,0.347c2.632,0.623,3.726,1.679,3.726,3.555c0,2.399-1.912,3.901-4.952,3.901
			c-2.844,0-4.764-1.467-4.887-3.787H79.534z"/>
		<path fill="#FFFFFF" d="M91.549,19.282v2.212h1.778v1.52h-1.778v5.154c0,0.801,0.356,1.174,1.138,1.174
			c0.211-0.003,0.423-0.019,0.631-0.044v1.511c-0.351,0.065-0.708,0.096-1.064,0.089c-1.895,0-2.633-0.711-2.633-2.524v-5.359
			h-1.359v-1.52h1.359v-2.212H91.549z"/>
		<path fill="#FFFFFF" d="M94.356,26.169c0-2.942,1.732-4.79,4.435-4.79c2.711,0,4.436,1.848,4.436,4.79
			c0,2.95-1.717,4.79-4.436,4.79S94.356,29.119,94.356,26.169z M101.271,26.169c0-2.018-0.924-3.209-2.479-3.209
			c-1.555,0-2.479,1.2-2.479,3.209c0,2.026,0.924,3.208,2.479,3.208C100.347,29.377,101.271,28.195,101.271,26.169L101.271,26.169z"
			/>
		<path fill="#FFFFFF" d="M104.808,21.494h1.831v1.591h0.045c0.254-1.024,1.194-1.729,2.249-1.689c0.222,0,0.441,0.023,0.657,0.071
			v1.795c-0.28-0.086-0.57-0.124-0.863-0.116c-1.067-0.043-1.967,0.787-2.009,1.854c-0.004,0.099-0.002,0.199,0.01,0.297v5.546
			h-1.92V21.494z"/>
		<path fill="#FFFFFF" d="M118.438,28.098c-0.259,1.697-1.912,2.862-4.026,2.862c-2.721,0-4.409-1.822-4.409-4.746
			c0-2.933,1.698-4.834,4.329-4.834c2.585,0,4.213,1.777,4.213,4.611v0.658h-6.604v0.116c-0.119,1.34,0.871,2.522,2.211,2.64
			c0.101,0.009,0.203,0.011,0.305,0.008c0.932,0.088,1.809-0.447,2.157-1.315H118.438z M111.949,25.307h4.676
			c0.068-1.24-0.88-2.301-2.12-2.37c-0.059-0.004-0.115-0.004-0.173-0.003c-1.308-0.007-2.374,1.046-2.383,2.353
			C111.949,25.293,111.949,25.301,111.949,25.307z"/>
	</g>
</g>
<g id="_Group_4">
	<g>
		<path fill="#FFFFFF" d="M44.543,8.368c1.501-0.108,2.806,1.022,2.914,2.523c0.013,0.18,0.008,0.36-0.015,0.538
			c0,1.969-1.064,3.1-2.899,3.1h-2.226V8.368H44.543z M43.274,13.658h1.162c1.068,0.064,1.986-0.75,2.049-1.818
			c0.008-0.133,0.002-0.267-0.017-0.398c0.146-1.063-0.598-2.042-1.661-2.188c-0.123-0.017-0.248-0.022-0.372-0.015h-1.162V13.658z"
			/>
		<path fill="#FFFFFF" d="M48.523,12.202c-0.116-1.211,0.772-2.287,1.983-2.402c1.211-0.116,2.287,0.772,2.403,1.983
			c0.014,0.14,0.014,0.28,0,0.419c0.118,1.211-0.769,2.289-1.979,2.407c-1.211,0.118-2.289-0.769-2.407-1.979
			C48.51,12.487,48.51,12.344,48.523,12.202z M51.965,12.202c0-1.008-0.453-1.597-1.248-1.597c-0.798,0-1.247,0.589-1.247,1.597
			c0,1.016,0.449,1.601,1.247,1.601C51.512,13.803,51.965,13.214,51.965,12.202L51.965,12.202z"/>
		<path fill="#FFFFFF" d="M58.739,14.529h-0.952l-0.961-3.425h-0.073l-0.957,3.425h-0.943l-1.282-4.65h0.931l0.833,3.548h0.068
			l0.956-3.548h0.88l0.956,3.548h0.073l0.829-3.548h0.917L58.739,14.529z"/>
		<path fill="#FFFFFF" d="M61.094,9.879h0.883v0.739h0.069c0.238-0.544,0.795-0.877,1.388-0.829
			c0.833-0.063,1.559,0.562,1.621,1.395c0.009,0.112,0.005,0.224-0.012,0.335v3.01h-0.918v-2.78c0-0.748-0.325-1.119-1.003-1.119
			c-0.588-0.027-1.087,0.428-1.115,1.016c-0.002,0.054,0,0.108,0.005,0.163v2.72h-0.917V9.879z"/>
		<path fill="#FFFFFF" d="M66.505,8.064h0.918v6.465h-0.918V8.064z"/>
		<path fill="#FFFFFF" d="M68.699,12.202c-0.117-1.211,0.771-2.287,1.982-2.402c1.211-0.116,2.287,0.772,2.402,1.983
			c0.015,0.139,0.015,0.279,0,0.419c0.119,1.211-0.768,2.289-1.979,2.407c-1.212,0.118-2.289-0.769-2.406-1.98
			C68.686,12.487,68.686,12.344,68.699,12.202z M72.141,12.202c0-1.008-0.453-1.597-1.248-1.597c-0.797,0-1.246,0.589-1.246,1.597
			c0,1.016,0.449,1.601,1.246,1.601C71.688,13.803,72.141,13.214,72.141,12.202z"/>
		<path fill="#FFFFFF" d="M74.051,13.214c0-0.837,0.623-1.32,1.73-1.388l1.258-0.073v-0.401c0-0.491-0.325-0.769-0.951-0.769
			c-0.513,0-0.868,0.188-0.969,0.517h-0.89c0.095-0.799,0.846-1.311,1.899-1.311c1.166,0,1.823,0.58,1.823,1.563v3.177h-0.883
			v-0.653h-0.073c-0.298,0.477-0.832,0.756-1.395,0.73c-0.772,0.08-1.463-0.48-1.543-1.252
			C74.053,13.308,74.051,13.261,74.051,13.214z M77.039,12.817v-0.389l-1.135,0.073c-0.64,0.042-0.931,0.26-0.931,0.67
			c0,0.418,0.363,0.662,0.861,0.662c0.603,0.061,1.142-0.378,1.202-0.98C77.037,12.841,77.039,12.829,77.039,12.817z"/>
		<path fill="#FFFFFF" d="M79.158,12.202c0-1.469,0.757-2.4,1.931-2.4c0.595-0.027,1.149,0.291,1.426,0.816h0.068V8.064h0.918v6.465
			h-0.879v-0.735h-0.073c-0.296,0.521-0.859,0.833-1.46,0.812C79.907,14.606,79.158,13.675,79.158,12.202z M80.106,12.202
			c0,0.986,0.466,1.58,1.242,1.58c0.775,0,1.253-0.602,1.253-1.576c0-0.969-0.484-1.58-1.253-1.58
			C80.576,10.626,80.106,11.224,80.106,12.202L80.106,12.202z"/>
		<path fill="#FFFFFF" d="M87.299,12.202c-0.117-1.211,0.772-2.287,1.982-2.402c1.213-0.116,2.287,0.772,2.402,1.983
			c0.015,0.14,0.015,0.28,0,0.419c0.119,1.211-0.769,2.289-1.979,2.407c-1.21,0.118-2.289-0.769-2.406-1.979
			C87.285,12.487,87.285,12.344,87.299,12.202z M90.74,12.202c0-1.008-0.452-1.597-1.247-1.597c-0.799,0-1.246,0.589-1.246,1.597
			c0,1.016,0.447,1.601,1.246,1.601C90.288,13.803,90.74,13.214,90.74,12.202z"/>
		<path fill="#FFFFFF" d="M92.916,9.879H93.8v0.739h0.068c0.238-0.544,0.795-0.877,1.388-0.829c0.833-0.063,1.559,0.562,1.621,1.395
			c0.009,0.112,0.004,0.224-0.012,0.335v3.01h-0.918v-2.78c0-0.748-0.324-1.119-1.004-1.119c-0.587-0.027-1.088,0.428-1.115,1.016
			c-0.003,0.054,0,0.108,0.006,0.163v2.72h-0.918V9.879z"/>
		<path fill="#FFFFFF" d="M102.051,8.722V9.9h1.006v0.773h-1.006v2.391c0,0.487,0.199,0.7,0.657,0.7
			c0.117,0,0.234-0.007,0.349-0.021v0.765c-0.163,0.029-0.33,0.045-0.498,0.047c-1.021,0-1.428-0.359-1.428-1.256v-2.626h-0.738V9.9
			h0.738V8.722H102.051z"/>
		<path fill="#FFFFFF" d="M104.312,8.064h0.91v2.563h0.072c0.25-0.548,0.816-0.882,1.418-0.833c0.845-0.046,1.567,0.602,1.613,1.446
			c0.004,0.096,0,0.192-0.012,0.287v3.002h-0.92v-2.776c0-0.743-0.345-1.119-0.994-1.119c-0.598-0.049-1.122,0.396-1.17,0.994
			c-0.006,0.062-0.006,0.124,0,0.185v2.716h-0.918V8.064z"/>
		<path fill="#FFFFFF" d="M113.664,13.274c-0.258,0.877-1.107,1.444-2.015,1.345c-1.166,0.031-2.136-0.89-2.169-2.056
			c-0.002-0.115,0.005-0.23,0.021-0.345c-0.157-1.174,0.668-2.253,1.842-2.41c0.099-0.014,0.201-0.02,0.303-0.019
			c1.292,0,2.073,0.884,2.073,2.344v0.32h-3.284v0.052c-0.056,0.677,0.446,1.271,1.122,1.328c0.04,0.003,0.078,0.004,0.116,0.004
			c0.45,0.054,0.888-0.169,1.107-0.563H113.664z M110.435,11.775h2.35c0.047-0.619-0.417-1.156-1.036-1.202
			c-0.036-0.003-0.072-0.004-0.109-0.003c-0.655-0.008-1.195,0.518-1.204,1.175C110.435,11.755,110.435,11.765,110.435,11.775
			L110.435,11.775z"/>
	</g>
</g>
<g>
	<g>
		<path fill="#FFFFFF" d="M130,0h-0.055c-0.359,0-0.65,0.291-0.65,0.65s0.291,0.65,0.65,0.65H130c0.359,0,0.65-0.291,0.65-0.65
			S130.359,0,130,0L130,0L130,0z M126.945,0h-0.056c-0.358,0-0.649,0.291-0.649,0.65s0.291,0.65,0.649,0.65h0.056
			c0.358,0,0.649-0.291,0.649-0.65S127.304,0,126.945,0L126.945,0z M123.89,0h-0.055c-0.359,0-0.65,0.291-0.65,0.65
			s0.291,0.65,0.65,0.65h0.055c0.359,0,0.65-0.291,0.65-0.65S124.249,0,123.89,0L123.89,0z M120.835,0h-0.055
			c-0.359,0-0.65,0.291-0.65,0.65s0.291,0.65,0.65,0.65h0.055c0.359,0,0.65-0.291,0.65-0.65S121.194,0,120.835,0L120.835,0z
			 M117.78,0h-0.056c-0.358,0-0.649,0.291-0.649,0.65s0.291,0.65,0.649,0.65h0.056c0.358,0,0.649-0.291,0.649-0.65
			S118.139,0,117.78,0L117.78,0z M114.725,0h-0.055c-0.359,0-0.65,0.291-0.65,0.65s0.291,0.65,0.65,0.65h0.055
			c0.359,0,0.65-0.291,0.65-0.65S115.084,0,114.725,0L114.725,0z M111.67,0h-0.055c-0.359,0-0.65,0.291-0.65,0.65
			s0.291,0.65,0.65,0.65h0.055c0.359,0,0.65-0.291,0.65-0.65S112.029,0,111.67,0L111.67,0z M108.615,0h-0.056
			c-0.358,0-0.649,0.291-0.649,0.65s0.291,0.65,0.649,0.65h0.056c0.358,0,0.649-0.291,0.649-0.65S108.974,0,108.615,0L108.615,0z
			 M105.56,0h-0.055c-0.358,0-0.649,0.291-0.649,0.65s0.291,0.65,0.649,0.65h0.055c0.359,0,0.65-0.291,0.65-0.65S105.919,0,105.56,0
			L105.56,0z M102.505,0h-0.055c-0.359,0-0.65,0.291-0.65,0.65s0.291,0.65,0.65,0.65h0.055c0.359,0,0.65-0.291,0.65-0.65
			S102.864,0,102.505,0L102.505,0z M99.45,0h-0.056c-0.358,0-0.649,0.291-0.649,0.65s0.291,0.65,0.649,0.65h0.056
			c0.358,0,0.649-0.291,0.649-0.65S99.809,0,99.45,0L99.45,0z M96.395,0H96.34c-0.358,0-0.649,0.291-0.649,0.65
			S95.981,1.3,96.34,1.3h0.055c0.359,0,0.65-0.291,0.65-0.65S96.754,0,96.395,0L96.395,0z M93.34,0h-0.055
			c-0.359,0-0.65,0.291-0.65,0.65s0.291,0.65,0.65,0.65h0.055c0.359,0,0.65-0.291,0.65-0.65S93.699,0,93.34,0L93.34,0z M90.285,0
			H90.23c-0.359,0-0.65,0.291-0.65,0.65s0.291,0.65,0.65,0.65h0.055c0.358,0,0.649-0.291,0.649-0.65S90.644,0,90.285,0L90.285,0z
			 M87.23,0h-0.056c-0.358,0-0.649,0.291-0.649,0.65s0.291,0.65,0.649,0.65h0.056c0.358,0,0.649-0.291,0.649-0.65S87.589,0,87.23,0
			L87.23,0z M84.175,0H84.12c-0.359,0-0.65,0.291-0.65,0.65s0.291,0.65,0.65,0.65h0.055c0.359,0,0.65-0.291,0.65-0.65
			S84.534,0,84.175,0L84.175,0z M81.12,0h-0.055c-0.359,0-0.65,0.291-0.65,0.65s0.291,0.65,0.65,0.65h0.055
			c0.358,0,0.649-0.291,0.649-0.65S81.479,0,81.12,0L81.12,0z M78.064,0H78.01c-0.359,0-0.65,0.291-0.65,0.65S77.65,1.3,78.01,1.3
			h0.055c0.359,0,0.65-0.291,0.65-0.65S78.424,0,78.064,0L78.064,0z M75.01,0h-0.055c-0.359,0-0.65,0.291-0.65,0.65
			s0.291,0.65,0.65,0.65h0.055c0.359,0,0.65-0.291,0.65-0.65S75.369,0,75.01,0L75.01,0z M71.955,0H71.9
			c-0.359,0-0.65,0.291-0.65,0.65S71.541,1.3,71.9,1.3h0.055c0.359,0,0.65-0.291,0.65-0.65S72.314,0,71.955,0L71.955,0z M68.9,0
			h-0.055c-0.359,0-0.65,0.291-0.65,0.65s0.291,0.65,0.65,0.65H68.9c0.358,0,0.649-0.291,0.649-0.65S69.259,0,68.9,0L68.9,0z
			 M65.845,0H65.79c-0.359,0-0.65,0.291-0.65,0.65s0.291,0.65,0.65,0.65h0.055c0.359,0,0.65-0.291,0.65-0.65S66.204,0,65.845,0
			L65.845,0z M62.79,0h-0.055c-0.359,0-0.65,0.291-0.65,0.65s0.291,0.65,0.65,0.65h0.055c0.359,0,0.65-0.291,0.65-0.65
			S63.149,0,62.79,0L62.79,0z M59.735,0H59.68c-0.359,0-0.65,0.291-0.65,0.65s0.291,0.65,0.65,0.65h0.055
			c0.359,0,0.65-0.291,0.65-0.65S60.094,0,59.735,0L59.735,0z M56.68,0h-0.055c-0.359,0-0.65,0.291-0.65,0.65s0.291,0.65,0.65,0.65
			h0.055c0.359,0,0.65-0.291,0.65-0.65S57.039,0,56.68,0L56.68,0z M53.625,0H53.57c-0.359,0-0.65,0.291-0.65,0.65
			s0.291,0.65,0.65,0.65h0.055c0.359,0,0.65-0.291,0.65-0.65S53.984,0,53.625,0L53.625,0z M50.57,0h-0.055
			c-0.359,0-0.65,0.291-0.65,0.65s0.291,0.65,0.65,0.65h0.055c0.359,0,0.65-0.291,0.65-0.65S50.929,0,50.57,0L50.57,0z M47.515,0
			H47.46c-0.359,0-0.65,0.291-0.65,0.65s0.291,0.65,0.65,0.65h0.055c0.359,0,0.65-0.291,0.65-0.65S47.874,0,47.515,0L47.515,0z
			 M44.46,0h-0.055c-0.359,0-0.65,0.291-0.65,0.65s0.291,0.65,0.65,0.65h0.055c0.359,0,0.65-0.291,0.65-0.65S44.819,0,44.46,0
			L44.46,0z M41.405,0H41.35c-0.359,0-0.65,0.291-0.65,0.65s0.291,0.65,0.65,0.65h0.055c0.359,0,0.65-0.291,0.65-0.65
			S41.764,0,41.405,0L41.405,0z M38.35,0h-0.055c-0.359,0-0.65,0.291-0.65,0.65s0.291,0.65,0.65,0.65h0.055
			C38.709,1.3,39,1.009,39,0.65S38.709,0,38.35,0L38.35,0z M35.295,0H35.24c-0.359,0-0.65,0.291-0.65,0.65s0.291,0.65,0.65,0.65
			h0.055c0.359,0,0.65-0.291,0.65-0.65S35.654,0,35.295,0L35.295,0z M32.24,0h-0.055c-0.359,0-0.65,0.291-0.65,0.65
			s0.291,0.65,0.65,0.65h0.055c0.359,0,0.65-0.291,0.65-0.65S32.599,0,32.24,0L32.24,0z M29.185,0H29.13
			c-0.359,0-0.65,0.291-0.65,0.65s0.291,0.65,0.65,0.65h0.055c0.359,0,0.65-0.291,0.65-0.65S29.544,0,29.185,0L29.185,0z M26.13,0
			h-0.055c-0.359,0-0.65,0.291-0.65,0.65s0.291,0.65,0.65,0.65h0.055c0.359,0,0.65-0.291,0.65-0.65S26.489,0,26.13,0L26.13,0z
			 M23.075,0H23.02c-0.359,0-0.65,0.291-0.65,0.65s0.291,0.65,0.65,0.65h0.055c0.359,0,0.65-0.291,0.65-0.65S23.434,0,23.075,0
			L23.075,0z M20.02,0h-0.055c-0.359,0-0.65,0.291-0.65,0.65s0.291,0.65,0.65,0.65h0.055c0.359,0,0.65-0.291,0.65-0.65
			S20.379,0,20.02,0L20.02,0z M16.965,0H16.91c-0.359,0-0.65,0.291-0.65,0.65s0.291,0.65,0.65,0.65h0.055
			c0.359,0,0.65-0.291,0.65-0.65S17.324,0,16.965,0L16.965,0z M13.91,0h-0.055c-0.359,0-0.65,0.291-0.65,0.65s0.291,0.65,0.65,0.65
			h0.055c0.359,0,0.65-0.291,0.65-0.65S14.269,0,13.91,0L13.91,0z M10.855,0H10.8c-0.359,0-0.65,0.291-0.65,0.65
			S10.441,1.3,10.8,1.3h0.055c0.359,0,0.65-0.291,0.65-0.65S11.214,0,10.855,0L10.855,0z M7.8,0H7.745
			c-0.359,0-0.65,0.291-0.65,0.65S7.386,1.3,7.745,1.3H7.8c0.359,0,0.65-0.291,0.65-0.65S8.159,0,7.8,0L7.8,0z M4.782,0.005
			c-0.009,0-0.018,0-0.027,0c-0.011,0-0.023,0.001-0.034,0.002c0,0-0.001,0-0.001,0c-0.002,0-0.003,0-0.005,0
			c-0.001,0-0.002,0-0.002,0c-0.011,0-0.021,0.001-0.031,0.002C4.327,0.035,4.059,0.34,4.082,0.695
			c0.021,0.346,0.31,0.613,0.652,0.613c0.012,0,0.024,0,0.037-0.001l0.041-0.002c0.358-0.02,0.634-0.327,0.616-0.686
			C5.41,0.273,5.125,0.005,4.782,0.005L4.782,0.005z M2.33,0.921c-0.138,0-0.277,0.044-0.395,0.135
			C1.924,1.065,1.912,1.074,1.9,1.083c0,0-0.001,0.001-0.001,0.001C1.898,1.086,1.896,1.087,1.896,1.088
			c-0.001,0-0.002,0.001-0.003,0.002c-0.001,0-0.001,0.001-0.002,0.001C1.889,1.093,1.888,1.094,1.886,1.095
			C1.884,1.097,1.881,1.099,1.879,1.101C1.604,1.325,1.56,1.728,1.782,2.006c0.129,0.161,0.319,0.245,0.511,0.245
			c0.142,0,0.285-0.046,0.405-0.141L2.73,2.085C3.012,1.862,3.061,1.453,2.839,1.17C2.711,1.007,2.521,0.921,2.33,0.921L2.33,0.921z
			 M0.838,3.077c-0.275,0-0.529,0.176-0.616,0.452C0.218,3.544,0.213,3.558,0.208,3.573C0.207,3.579,0.206,3.584,0.204,3.589
			c0,0,0,0.001,0,0.001C0.203,3.593,0.202,3.595,0.202,3.597c-0.099,0.342,0.096,0.698,0.438,0.8
			c0.062,0.018,0.124,0.027,0.185,0.027c0.281,0,0.541-0.183,0.626-0.465L1.462,3.92c0.104-0.344-0.09-0.708-0.433-0.814
			C0.965,3.086,0.901,3.077,0.838,3.077L0.838,3.077z M0.65,5.92C0.291,5.92,0,6.211,0,6.57v0.055c0,0.359,0.291,0.65,0.65,0.65
			S1.3,6.984,1.3,6.625V6.57C1.3,6.211,1.009,5.92,0.65,5.92L0.65,5.92z M0.65,8.975C0.291,8.975,0,9.266,0,9.625V9.68
			c0,0.359,0.291,0.65,0.65,0.65S1.3,10.039,1.3,9.68V9.625C1.3,9.266,1.009,8.975,0.65,8.975L0.65,8.975z M0.65,12.03
			C0.291,12.03,0,12.321,0,12.68v0.055c0,0.359,0.291,0.65,0.65,0.65s0.65-0.291,0.65-0.65V12.68C1.3,12.321,1.009,12.03,0.65,12.03
			L0.65,12.03z M0.65,15.085c-0.359,0-0.65,0.291-0.65,0.65v0.055c0,0.359,0.291,0.65,0.65,0.65s0.65-0.291,0.65-0.65v-0.055
			C1.3,15.376,1.009,15.085,0.65,15.085L0.65,15.085z M0.65,18.14C0.291,18.14,0,18.431,0,18.79v0.055c0,0.359,0.291,0.65,0.65,0.65
			s0.65-0.291,0.65-0.65V18.79C1.3,18.431,1.009,18.14,0.65,18.14L0.65,18.14z M0.65,21.195c-0.359,0-0.65,0.291-0.65,0.65V21.9
			c0,0.359,0.291,0.65,0.65,0.65S1.3,22.259,1.3,21.9v-0.055C1.3,21.486,1.009,21.195,0.65,21.195L0.65,21.195z M0.65,24.25
			C0.291,24.25,0,24.541,0,24.9v0.055c0,0.359,0.291,0.65,0.65,0.65s0.65-0.291,0.65-0.65V24.9C1.3,24.541,1.009,24.25,0.65,24.25
			L0.65,24.25z M0.65,27.305c-0.359,0-0.65,0.291-0.65,0.65v0.055c0,0.359,0.291,0.65,0.65,0.65s0.65-0.291,0.65-0.65v-0.055
			C1.3,27.596,1.009,27.305,0.65,27.305L0.65,27.305z M0.65,30.36C0.291,30.36,0,30.651,0,31.01v0.055c0,0.359,0.291,0.65,0.65,0.65
			s0.65-0.291,0.65-0.65V31.01C1.3,30.651,1.009,30.36,0.65,30.36L0.65,30.36z M0.65,33.415c-0.359,0-0.65,0.291-0.65,0.65v0.055
			c0,0.359,0.291,0.65,0.65,0.65s0.65-0.291,0.65-0.65v-0.055C1.3,33.706,1.009,33.415,0.65,33.415L0.65,33.415z M1.034,36.138
			c-0.09,0-0.183,0.019-0.27,0.059c-0.324,0.147-0.467,0.527-0.323,0.852c0.001,0.002,0.002,0.005,0.004,0.008
			c0.005,0.011,0.01,0.022,0.015,0.033c0.004,0.008,0.008,0.017,0.012,0.024c0.111,0.232,0.341,0.368,0.583,0.368
			c0.092,0,0.186-0.02,0.274-0.061c0.325-0.152,0.467-0.54,0.316-0.866l-0.017-0.037C1.518,36.279,1.281,36.138,1.034,36.138
			L1.034,36.138z M2.788,38.091c-0.223,0-0.44,0.114-0.562,0.318c-0.183,0.306-0.084,0.701,0.22,0.885
			c0.002,0.001,0.004,0.002,0.006,0.003c0,0,0,0,0,0c0.016,0.009,0.031,0.019,0.047,0.028c0.002,0.001,0.005,0.003,0.007,0.004
			c0.102,0.058,0.212,0.086,0.321,0.086c0.223,0,0.439-0.115,0.559-0.322c0.181-0.311,0.076-0.709-0.233-0.892l-0.035-0.021
			C3.015,38.12,2.9,38.091,2.788,38.091L2.788,38.091z M5.435,38.7H5.38c-0.359,0-0.65,0.291-0.65,0.65S5.021,40,5.38,40h0.055
			c0.359,0,0.65-0.291,0.65-0.65S5.794,38.7,5.435,38.7L5.435,38.7z M8.49,38.7H8.435c-0.359,0-0.65,0.291-0.65,0.65
			S8.076,40,8.435,40H8.49c0.359,0,0.65-0.291,0.65-0.65S8.849,38.7,8.49,38.7L8.49,38.7z M11.545,38.7H11.49
			c-0.359,0-0.65,0.291-0.65,0.65S11.131,40,11.49,40h0.055c0.359,0,0.65-0.291,0.65-0.65S11.904,38.7,11.545,38.7L11.545,38.7z
			 M14.6,38.7h-0.055c-0.359,0-0.65,0.291-0.65,0.65S14.186,40,14.545,40H14.6c0.359,0,0.65-0.291,0.65-0.65S14.959,38.7,14.6,38.7
			L14.6,38.7z M17.655,38.7H17.6c-0.359,0-0.65,0.291-0.65,0.65S17.241,40,17.6,40h0.055c0.359,0,0.65-0.291,0.65-0.65
			S18.014,38.7,17.655,38.7L17.655,38.7z M20.71,38.7h-0.055c-0.359,0-0.65,0.291-0.65,0.65S20.296,40,20.655,40h0.055
			c0.359,0,0.65-0.291,0.65-0.65S21.069,38.7,20.71,38.7L20.71,38.7z M23.765,38.7H23.71c-0.359,0-0.65,0.291-0.65,0.65
			S23.351,40,23.71,40h0.055c0.359,0,0.65-0.291,0.65-0.65S24.124,38.7,23.765,38.7L23.765,38.7z M26.82,38.7h-0.055
			c-0.359,0-0.65,0.291-0.65,0.65S26.406,40,26.765,40h0.055c0.359,0,0.65-0.291,0.65-0.65S27.179,38.7,26.82,38.7L26.82,38.7z
			 M29.875,38.7H29.82c-0.359,0-0.65,0.291-0.65,0.65S29.461,40,29.82,40h0.055c0.359,0,0.65-0.291,0.65-0.65
			S30.234,38.7,29.875,38.7L29.875,38.7z M32.93,38.7h-0.055c-0.359,0-0.65,0.291-0.65,0.65S32.516,40,32.875,40h0.055
			c0.359,0,0.65-0.291,0.65-0.65S33.289,38.7,32.93,38.7L32.93,38.7z M35.985,38.7H35.93c-0.359,0-0.65,0.291-0.65,0.65
			S35.571,40,35.93,40h0.055c0.359,0,0.65-0.291,0.65-0.65S36.344,38.7,35.985,38.7L35.985,38.7z M39.04,38.7h-0.055
			c-0.359,0-0.65,0.291-0.65,0.65S38.626,40,38.985,40h0.055c0.359,0,0.65-0.291,0.65-0.65S39.399,38.7,39.04,38.7L39.04,38.7z
			 M42.095,38.7H42.04c-0.359,0-0.65,0.291-0.65,0.65S41.681,40,42.04,40h0.055c0.359,0,0.65-0.291,0.65-0.65
			S42.454,38.7,42.095,38.7L42.095,38.7z M45.15,38.7h-0.055c-0.359,0-0.65,0.291-0.65,0.65S44.736,40,45.095,40h0.055
			c0.359,0,0.65-0.291,0.65-0.65S45.509,38.7,45.15,38.7L45.15,38.7z M48.205,38.7H48.15c-0.359,0-0.65,0.291-0.65,0.65
			S47.791,40,48.15,40h0.055c0.359,0,0.65-0.291,0.65-0.65S48.564,38.7,48.205,38.7L48.205,38.7z M51.26,38.7h-0.055
			c-0.359,0-0.65,0.291-0.65,0.65S50.846,40,51.205,40h0.055c0.359,0,0.65-0.291,0.65-0.65S51.619,38.7,51.26,38.7L51.26,38.7z
			 M54.315,38.7H54.26c-0.359,0-0.65,0.291-0.65,0.65S53.901,40,54.26,40h0.055c0.359,0,0.65-0.291,0.65-0.65
			S54.674,38.7,54.315,38.7L54.315,38.7z M57.37,38.7h-0.055c-0.359,0-0.65,0.291-0.65,0.65S56.956,40,57.315,40h0.055
			c0.359,0,0.65-0.291,0.65-0.65S57.729,38.7,57.37,38.7L57.37,38.7z M60.425,38.7H60.37c-0.359,0-0.65,0.291-0.65,0.65
			S60.011,40,60.37,40h0.055c0.359,0,0.65-0.291,0.65-0.65S60.784,38.7,60.425,38.7L60.425,38.7z M63.48,38.7h-0.055
			c-0.359,0-0.65,0.291-0.65,0.65S63.066,40,63.425,40h0.055c0.359,0,0.65-0.291,0.65-0.65S63.839,38.7,63.48,38.7L63.48,38.7z
			 M66.535,38.7H66.48c-0.359,0-0.65,0.291-0.65,0.65S66.121,40,66.48,40h0.055c0.359,0,0.65-0.291,0.65-0.65
			S66.894,38.7,66.535,38.7L66.535,38.7z M69.59,38.7h-0.055c-0.359,0-0.65,0.291-0.65,0.65S69.176,40,69.535,40h0.055
			c0.359,0,0.65-0.291,0.65-0.65S69.949,38.7,69.59,38.7L69.59,38.7z M72.645,38.7H72.59c-0.359,0-0.65,0.291-0.65,0.65
			S72.23,40,72.59,40h0.055c0.359,0,0.65-0.291,0.65-0.65S73.004,38.7,72.645,38.7L72.645,38.7z M75.7,38.7h-0.056
			c-0.358,0-0.649,0.291-0.649,0.65S75.286,40,75.645,40H75.7c0.358,0,0.649-0.291,0.649-0.65S76.059,38.7,75.7,38.7L75.7,38.7z
			 M78.755,38.7H78.7c-0.358,0-0.649,0.291-0.649,0.65S78.342,40,78.7,40h0.055c0.359,0,0.65-0.291,0.65-0.65
			S79.114,38.7,78.755,38.7L78.755,38.7z M81.811,38.7h-0.056c-0.358,0-0.649,0.291-0.649,0.65S81.396,40,81.755,40h0.056
			c0.358,0,0.649-0.291,0.649-0.65S82.169,38.7,81.811,38.7L81.811,38.7z M84.865,38.7h-0.055c-0.359,0-0.65,0.291-0.65,0.65
			S84.451,40,84.811,40h0.055c0.358,0,0.649-0.291,0.649-0.65S85.224,38.7,84.865,38.7L84.865,38.7z M87.92,38.7h-0.055
			c-0.359,0-0.65,0.291-0.65,0.65S87.506,40,87.865,40h0.055c0.359,0,0.65-0.291,0.65-0.65S88.279,38.7,87.92,38.7L87.92,38.7z
			 M90.976,38.7H90.92c-0.358,0-0.649,0.291-0.649,0.65S90.562,40,90.92,40h0.056c0.358,0,0.649-0.291,0.649-0.65
			S91.334,38.7,90.976,38.7L90.976,38.7z M94.03,38.7h-0.055c-0.359,0-0.65,0.291-0.65,0.65S93.616,40,93.976,40h0.055
			c0.358,0,0.649-0.291,0.649-0.65S94.389,38.7,94.03,38.7L94.03,38.7z M97.085,38.7H97.03c-0.359,0-0.65,0.291-0.65,0.65
			S96.671,40,97.03,40h0.055c0.359,0,0.65-0.291,0.65-0.65S97.444,38.7,97.085,38.7L97.085,38.7z M100.14,38.7h-0.055
			c-0.358,0-0.649,0.291-0.649,0.65S99.727,40,100.085,40h0.055c0.359,0,0.65-0.291,0.65-0.65S100.499,38.7,100.14,38.7L100.14,38.7
			z M103.195,38.7h-0.056c-0.358,0-0.649,0.291-0.649,0.65S102.781,40,103.14,40h0.056c0.358,0,0.649-0.291,0.649-0.65
			S103.554,38.7,103.195,38.7L103.195,38.7z M106.25,38.7h-0.055c-0.359,0-0.65,0.291-0.65,0.65s0.291,0.65,0.65,0.65h0.055
			c0.359,0,0.65-0.291,0.65-0.65S106.609,38.7,106.25,38.7L106.25,38.7z M109.305,38.7h-0.055c-0.358,0-0.649,0.291-0.649,0.65
			S108.892,40,109.25,40h0.055c0.359,0,0.65-0.291,0.65-0.65S109.664,38.7,109.305,38.7L109.305,38.7z M112.36,38.7h-0.056
			c-0.358,0-0.649,0.291-0.649,0.65s0.291,0.65,0.649,0.65h0.056c0.358,0,0.649-0.291,0.649-0.65S112.719,38.7,112.36,38.7
			L112.36,38.7z M115.415,38.7h-0.055c-0.359,0-0.65,0.291-0.65,0.65s0.291,0.65,0.65,0.65h0.055c0.359,0,0.65-0.291,0.65-0.65
			S115.774,38.7,115.415,38.7L115.415,38.7z M118.47,38.7h-0.055c-0.359,0-0.65,0.291-0.65,0.65s0.291,0.65,0.65,0.65h0.055
			c0.359,0,0.65-0.291,0.65-0.65S118.829,38.7,118.47,38.7L118.47,38.7z M121.525,38.7h-0.056c-0.358,0-0.649,0.291-0.649,0.65
			S121.111,40,121.47,40h0.056c0.358,0,0.649-0.291,0.649-0.65S121.884,38.7,121.525,38.7L121.525,38.7z M124.58,38.7h-0.055
			c-0.359,0-0.65,0.291-0.65,0.65s0.291,0.65,0.65,0.65h0.055c0.359,0,0.65-0.291,0.65-0.65S124.939,38.7,124.58,38.7L124.58,38.7z
			 M127.635,38.7h-0.055c-0.359,0-0.65,0.291-0.65,0.65s0.291,0.65,0.65,0.65h0.055c0.359,0,0.65-0.291,0.65-0.65
			S127.994,38.7,127.635,38.7L127.635,38.7z M130.596,38.659c-0.028,0-0.058,0.002-0.087,0.006l-0.04,0.005
			c-0.356,0.047-0.607,0.375-0.563,0.73c0.042,0.327,0.32,0.564,0.641,0.564c0.025,0,0.051-0.001,0.077-0.004
			c0.009-0.001,0.017-0.002,0.025-0.003c0.001,0,0.001,0,0.002,0c0.002,0,0.003,0,0.005,0c0.001,0,0.002,0,0.003,0
			c0.013-0.002,0.025-0.003,0.038-0.005c0.351-0.052,0.595-0.376,0.546-0.729C131.197,38.896,130.917,38.659,130.596,38.659
			L130.596,38.659z M132.958,37.532c-0.158,0-0.316,0.057-0.442,0.173l-0.03,0.027c-0.264,0.243-0.281,0.656-0.04,0.921
			c0.128,0.14,0.303,0.211,0.479,0.211c0.153,0,0.309-0.055,0.432-0.166c0.002-0.001,0.004-0.003,0.006-0.005v0
			c0.014-0.012,0.027-0.025,0.04-0.037c0.001,0,0.001,0,0.001-0.001c0.002-0.001,0.003-0.002,0.005-0.004
			c0.259-0.244,0.272-0.65,0.029-0.911C133.309,37.602,133.134,37.532,132.958,37.532L132.958,37.532z M134.257,35.257
			c-0.3,0-0.571,0.208-0.638,0.513l-0.009,0.04c-0.077,0.351,0.144,0.699,0.494,0.778c0.048,0.011,0.097,0.016,0.144,0.016
			c0.295,0,0.56-0.202,0.629-0.5c0-0.002,0-0.004,0.001-0.006c0,0,0-0.001,0-0.001c0.001-0.004,0.002-0.009,0.003-0.013
			c0,0,0-0.001,0-0.001c0.001-0.001,0.001-0.002,0.001-0.003c0.004-0.015,0.007-0.03,0.01-0.045
			c0.071-0.348-0.149-0.688-0.497-0.762C134.348,35.261,134.303,35.257,134.257,35.257L134.257,35.257z M134.35,32.345
			c-0.358,0-0.649,0.291-0.649,0.65v0.055c0,0.359,0.291,0.65,0.649,0.65c0.359,0,0.65-0.291,0.65-0.65v-0.055
			C135,32.636,134.709,32.345,134.35,32.345L134.35,32.345z M134.35,29.29c-0.358,0-0.649,0.291-0.649,0.65v0.055
			c0,0.359,0.291,0.65,0.649,0.65c0.359,0,0.65-0.291,0.65-0.65V29.94C135,29.581,134.709,29.29,134.35,29.29L134.35,29.29z
			 M134.35,26.235c-0.358,0-0.649,0.291-0.649,0.65v0.055c0,0.359,0.291,0.65,0.649,0.65c0.359,0,0.65-0.291,0.65-0.65v-0.055
			C135,26.526,134.709,26.235,134.35,26.235L134.35,26.235z M134.35,23.18c-0.358,0-0.649,0.291-0.649,0.65v0.055
			c0,0.359,0.291,0.65,0.649,0.65c0.359,0,0.65-0.291,0.65-0.65V23.83C135,23.471,134.709,23.18,134.35,23.18L134.35,23.18z
			 M134.35,20.125c-0.358,0-0.649,0.291-0.649,0.65v0.055c0,0.359,0.291,0.65,0.649,0.65c0.359,0,0.65-0.291,0.65-0.65v-0.055
			C135,20.416,134.709,20.125,134.35,20.125L134.35,20.125z M134.35,17.07c-0.358,0-0.649,0.291-0.649,0.65v0.055
			c0,0.359,0.291,0.65,0.649,0.65c0.359,0,0.65-0.291,0.65-0.65V17.72C135,17.361,134.709,17.07,134.35,17.07L134.35,17.07z
			 M134.35,14.015c-0.358,0-0.649,0.291-0.649,0.65v0.055c0,0.359,0.291,0.65,0.649,0.65c0.359,0,0.65-0.291,0.65-0.65v-0.055
			C135,14.306,134.709,14.015,134.35,14.015L134.35,14.015z M134.35,10.96c-0.358,0-0.649,0.291-0.649,0.65v0.055
			c0,0.359,0.291,0.65,0.649,0.65c0.359,0,0.65-0.291,0.65-0.65V11.61C135,11.251,134.709,10.96,134.35,10.96L134.35,10.96z
			 M134.35,7.905c-0.358,0-0.649,0.291-0.649,0.65V8.61c0,0.359,0.291,0.65,0.649,0.65c0.359,0,0.65-0.291,0.65-0.65V8.555
			C135,8.196,134.709,7.905,134.35,7.905L134.35,7.905z M134.35,4.85c-0.358,0-0.649,0.291-0.649,0.65v0.055
			c0,0.359,0.291,0.65,0.649,0.65c0.359,0,0.65-0.291,0.65-0.65V5.5C135,5.141,134.709,4.85,134.35,4.85L134.35,4.85z
			 M133.793,2.224c-0.107,0-0.217,0.027-0.317,0.083c-0.313,0.177-0.425,0.574-0.25,0.888l0.02,0.035
			c0.12,0.214,0.343,0.335,0.572,0.335c0.106,0,0.215-0.026,0.314-0.081c0.312-0.171,0.426-0.561,0.257-0.873
			c-0.003-0.005-0.006-0.01-0.009-0.016c0-0.001-0.001-0.002-0.002-0.003c0,0,0,0,0-0.001c-0.007-0.012-0.014-0.024-0.021-0.036
			C134.239,2.343,134.02,2.224,133.793,2.224L133.793,2.224z M131.88,0.429c-0.24,0-0.47,0.134-0.582,0.365
			c-0.156,0.323-0.021,0.713,0.3,0.872l0.037,0.018c0.092,0.045,0.19,0.067,0.287,0.067c0.24,0,0.472-0.133,0.586-0.362
			c0.159-0.319,0.03-0.705-0.286-0.865c-0.003-0.001-0.005-0.002-0.007-0.003c-0.001,0-0.001,0-0.001,0
			c-0.017-0.008-0.032-0.016-0.049-0.024l-0.001,0c-0.002-0.001-0.004-0.002-0.007-0.003C132.067,0.45,131.973,0.429,131.88,0.429
			L131.88,0.429z"/>
	</g>
</g>
</svg>
