<?xml version="1.0" encoding="utf-8"?>
<!-- Generator: Adobe Illustrator 16.0.0, SVG Export Plug-In . SVG Version: 6.00 Build 0)  -->
<!DOCTYPE svg PUBLIC "-//W3C//DTD SVG 1.1//EN" "http://www.w3.org/Graphics/SVG/1.1/DTD/svg11.dtd">
<svg version="1.1" id="artwork" xmlns="http://www.w3.org/2000/svg" xmlns:xlink="http://www.w3.org/1999/xlink" x="0px" y="0px"
	 width="135px" height="40px" viewBox="0 0 135 40" enable-background="new 0 0 135 40" xml:space="preserve">
<g>
	<g>
		<g>
			<path fill="#FFFFFF" d="M130,0h-0.055c-0.359,0-0.65,0.291-0.65,0.65s0.291,0.65,0.65,0.65H130c0.359,0,0.65-0.291,0.65-0.65
				S130.359,0,130,0L130,0L130,0z M126.945,0h-0.056c-0.358,0-0.649,0.291-0.649,0.65s0.291,0.65,0.649,0.65h0.056
				c0.358,0,0.649-0.291,0.649-0.65S127.304,0,126.945,0L126.945,0z M123.89,0h-0.055c-0.359,0-0.65,0.291-0.65,0.65
				s0.291,0.65,0.65,0.65h0.055c0.359,0,0.65-0.291,0.65-0.65S124.249,0,123.89,0L123.89,0z M120.835,0h-0.055
				c-0.359,0-0.65,0.291-0.65,0.65s0.291,0.65,0.65,0.65h0.055c0.359,0,0.65-0.291,0.65-0.65S121.194,0,120.835,0L120.835,0z
				 M117.78,0h-0.056c-0.358,0-0.649,0.291-0.649,0.65s0.291,0.65,0.649,0.65h0.056c0.358,0,0.649-0.291,0.649-0.65
				S118.139,0,117.78,0L117.78,0z M114.725,0h-0.055c-0.359,0-0.65,0.291-0.65,0.65s0.291,0.65,0.65,0.65h0.055
				c0.359,0,0.65-0.291,0.65-0.65S115.084,0,114.725,0L114.725,0z M111.67,0h-0.055c-0.359,0-0.65,0.291-0.65,0.65
				s0.291,0.65,0.65,0.65h0.055c0.359,0,0.65-0.291,0.65-0.65S112.029,0,111.67,0L111.67,0z M108.615,0h-0.056
				c-0.358,0-0.649,0.291-0.649,0.65s0.291,0.65,0.649,0.65h0.056c0.358,0,0.649-0.291,0.649-0.65S108.974,0,108.615,0L108.615,0z
				 M105.56,0h-0.055c-0.358,0-0.649,0.291-0.649,0.65s0.291,0.65,0.649,0.65h0.055c0.359,0,0.65-0.291,0.65-0.65
				S105.919,0,105.56,0L105.56,0z M102.505,0h-0.055c-0.359,0-0.65,0.291-0.65,0.65s0.291,0.65,0.65,0.65h0.055
				c0.359,0,0.65-0.291,0.65-0.65S102.864,0,102.505,0L102.505,0z M99.45,0h-0.056c-0.358,0-0.649,0.291-0.649,0.65
				s0.291,0.65,0.649,0.65h0.056c0.358,0,0.649-0.291,0.649-0.65S99.809,0,99.45,0L99.45,0z M96.395,0H96.34
				c-0.358,0-0.649,0.291-0.649,0.65S95.981,1.3,96.34,1.3h0.055c0.359,0,0.65-0.291,0.65-0.65S96.754,0,96.395,0L96.395,0z
				 M93.34,0h-0.055c-0.359,0-0.65,0.291-0.65,0.65s0.291,0.65,0.65,0.65h0.055c0.359,0,0.65-0.291,0.65-0.65S93.699,0,93.34,0
				L93.34,0z M90.285,0H90.23c-0.359,0-0.65,0.291-0.65,0.65s0.291,0.65,0.65,0.65h0.055c0.358,0,0.649-0.291,0.649-0.65
				S90.644,0,90.285,0L90.285,0z M87.23,0h-0.056c-0.358,0-0.649,0.291-0.649,0.65s0.291,0.65,0.649,0.65h0.056
				c0.358,0,0.649-0.291,0.649-0.65S87.589,0,87.23,0L87.23,0z M84.175,0H84.12c-0.359,0-0.65,0.291-0.65,0.65s0.291,0.65,0.65,0.65
				h0.055c0.359,0,0.65-0.291,0.65-0.65S84.534,0,84.175,0L84.175,0z M81.12,0h-0.055c-0.359,0-0.65,0.291-0.65,0.65
				s0.291,0.65,0.65,0.65h0.055c0.358,0,0.649-0.291,0.649-0.65S81.479,0,81.12,0L81.12,0z M78.065,0H78.01
				c-0.358,0-0.649,0.291-0.649,0.65S77.651,1.3,78.01,1.3h0.056c0.358,0,0.649-0.291,0.649-0.65S78.424,0,78.065,0L78.065,0z
				 M75.01,0h-0.055c-0.359,0-0.65,0.291-0.65,0.65s0.291,0.65,0.65,0.65h0.055c0.359,0,0.65-0.291,0.65-0.65S75.369,0,75.01,0
				L75.01,0z M71.955,0H71.9c-0.359,0-0.65,0.291-0.65,0.65S71.541,1.3,71.9,1.3h0.055c0.359,0,0.65-0.291,0.65-0.65
				S72.314,0,71.955,0L71.955,0z M68.9,0h-0.056c-0.358,0-0.649,0.291-0.649,0.65s0.291,0.65,0.649,0.65H68.9
				c0.358,0,0.649-0.291,0.649-0.65S69.259,0,68.9,0L68.9,0z M65.845,0H65.79c-0.359,0-0.65,0.291-0.65,0.65s0.291,0.65,0.65,0.65
				h0.055c0.359,0,0.65-0.291,0.65-0.65S66.204,0,65.845,0L65.845,0z M62.79,0h-0.055c-0.359,0-0.65,0.291-0.65,0.65
				s0.291,0.65,0.65,0.65h0.055c0.359,0,0.65-0.291,0.65-0.65S63.149,0,62.79,0L62.79,0z M59.735,0H59.68
				c-0.359,0-0.65,0.291-0.65,0.65s0.291,0.65,0.65,0.65h0.055c0.359,0,0.65-0.291,0.65-0.65S60.094,0,59.735,0L59.735,0z M56.68,0
				h-0.055c-0.359,0-0.65,0.291-0.65,0.65s0.291,0.65,0.65,0.65h0.055c0.359,0,0.65-0.291,0.65-0.65S57.039,0,56.68,0L56.68,0z
				 M53.625,0H53.57c-0.359,0-0.65,0.291-0.65,0.65s0.291,0.65,0.65,0.65h0.055c0.359,0,0.65-0.291,0.65-0.65S53.984,0,53.625,0
				L53.625,0z M50.57,0h-0.055c-0.359,0-0.65,0.291-0.65,0.65s0.291,0.65,0.65,0.65h0.055c0.359,0,0.65-0.291,0.65-0.65
				S50.929,0,50.57,0L50.57,0z M47.515,0H47.46c-0.359,0-0.65,0.291-0.65,0.65s0.291,0.65,0.65,0.65h0.055
				c0.359,0,0.65-0.291,0.65-0.65S47.874,0,47.515,0L47.515,0z M44.46,0h-0.055c-0.359,0-0.65,0.291-0.65,0.65s0.291,0.65,0.65,0.65
				h0.055c0.359,0,0.65-0.291,0.65-0.65S44.819,0,44.46,0L44.46,0z M41.405,0H41.35c-0.359,0-0.65,0.291-0.65,0.65
				s0.291,0.65,0.65,0.65h0.055c0.359,0,0.65-0.291,0.65-0.65S41.764,0,41.405,0L41.405,0z M38.35,0h-0.055
				c-0.359,0-0.65,0.291-0.65,0.65s0.291,0.65,0.65,0.65h0.055C38.709,1.3,39,1.009,39,0.65S38.709,0,38.35,0L38.35,0z M35.295,0
				H35.24c-0.359,0-0.65,0.291-0.65,0.65s0.291,0.65,0.65,0.65h0.055c0.359,0,0.65-0.291,0.65-0.65S35.654,0,35.295,0L35.295,0z
				 M32.24,0h-0.055c-0.359,0-0.65,0.291-0.65,0.65s0.291,0.65,0.65,0.65h0.055c0.359,0,0.65-0.291,0.65-0.65S32.599,0,32.24,0
				L32.24,0z M29.185,0H29.13c-0.359,0-0.65,0.291-0.65,0.65s0.291,0.65,0.65,0.65h0.055c0.359,0,0.65-0.291,0.65-0.65
				S29.544,0,29.185,0L29.185,0z M26.13,0h-0.055c-0.359,0-0.65,0.291-0.65,0.65s0.291,0.65,0.65,0.65h0.055
				c0.359,0,0.65-0.291,0.65-0.65S26.489,0,26.13,0L26.13,0z M23.075,0H23.02c-0.359,0-0.65,0.291-0.65,0.65s0.291,0.65,0.65,0.65
				h0.055c0.359,0,0.65-0.291,0.65-0.65S23.434,0,23.075,0L23.075,0z M20.02,0h-0.055c-0.359,0-0.65,0.291-0.65,0.65
				s0.291,0.65,0.65,0.65h0.055c0.359,0,0.65-0.291,0.65-0.65S20.379,0,20.02,0L20.02,0z M16.965,0H16.91
				c-0.359,0-0.65,0.291-0.65,0.65s0.291,0.65,0.65,0.65h0.055c0.359,0,0.65-0.291,0.65-0.65S17.324,0,16.965,0L16.965,0z M13.91,0
				h-0.055c-0.359,0-0.65,0.291-0.65,0.65s0.291,0.65,0.65,0.65h0.055c0.359,0,0.65-0.291,0.65-0.65S14.269,0,13.91,0L13.91,0z
				 M10.855,0H10.8c-0.359,0-0.65,0.291-0.65,0.65S10.441,1.3,10.8,1.3h0.055c0.359,0,0.65-0.291,0.65-0.65S11.214,0,10.855,0
				L10.855,0z M7.8,0H7.745c-0.359,0-0.65,0.291-0.65,0.65S7.386,1.3,7.745,1.3H7.8c0.359,0,0.65-0.291,0.65-0.65S8.159,0,7.8,0
				L7.8,0z M4.782,0.005c-0.009,0-0.018,0-0.027,0c-0.011,0-0.023,0.001-0.034,0.002c0,0-0.001,0-0.001,0c-0.002,0-0.003,0-0.005,0
				c-0.001,0-0.002,0-0.003,0c-0.01,0-0.02,0.001-0.03,0.002c-0.354,0.025-0.622,0.33-0.6,0.685c0.021,0.346,0.31,0.613,0.652,0.613
				c0.012,0,0.024,0,0.037-0.001l0.041-0.002c0.358-0.02,0.634-0.327,0.616-0.686C5.41,0.273,5.125,0.005,4.782,0.005L4.782,0.005z
				 M2.33,0.921c-0.138,0-0.277,0.044-0.395,0.135C1.924,1.065,1.912,1.074,1.9,1.083c0,0-0.001,0.001-0.001,0.001
				C1.898,1.086,1.896,1.087,1.896,1.088c-0.001,0-0.002,0.001-0.003,0.002c-0.001,0-0.001,0.001-0.002,0.001
				C1.889,1.093,1.888,1.094,1.886,1.095C1.884,1.097,1.881,1.099,1.879,1.101C1.604,1.325,1.56,1.728,1.782,2.006
				c0.129,0.161,0.319,0.245,0.511,0.245c0.142,0,0.285-0.046,0.405-0.141L2.73,2.085C3.012,1.862,3.061,1.453,2.839,1.17
				C2.711,1.007,2.521,0.921,2.33,0.921L2.33,0.921z M0.838,3.077c-0.275,0-0.529,0.176-0.616,0.452
				c-0.004,0.015-0.009,0.03-0.014,0.044C0.207,3.579,0.206,3.584,0.204,3.589c0,0,0,0.001,0,0.001c0,0.002-0.001,0.004-0.002,0.006
				c-0.099,0.342,0.096,0.698,0.438,0.8c0.062,0.018,0.124,0.027,0.185,0.027c0.281,0,0.541-0.183,0.626-0.465L1.462,3.92
				c0.104-0.344-0.09-0.708-0.433-0.814C0.965,3.086,0.901,3.077,0.838,3.077L0.838,3.077z M0.65,5.92C0.291,5.92,0,6.211,0,6.57
				v0.055c0,0.359,0.291,0.65,0.65,0.65S1.3,6.984,1.3,6.625V6.57C1.3,6.211,1.009,5.92,0.65,5.92L0.65,5.92z M0.65,8.975
				C0.291,8.975,0,9.266,0,9.625V9.68c0,0.359,0.291,0.65,0.65,0.65S1.3,10.039,1.3,9.68V9.625C1.3,9.266,1.009,8.975,0.65,8.975
				L0.65,8.975z M0.65,12.03C0.291,12.03,0,12.321,0,12.68v0.055c0,0.359,0.291,0.65,0.65,0.65s0.65-0.291,0.65-0.65V12.68
				C1.3,12.321,1.009,12.03,0.65,12.03L0.65,12.03z M0.65,15.085c-0.359,0-0.65,0.291-0.65,0.65v0.055c0,0.359,0.291,0.65,0.65,0.65
				s0.65-0.291,0.65-0.65v-0.055C1.3,15.376,1.009,15.085,0.65,15.085L0.65,15.085z M0.65,18.14C0.291,18.14,0,18.431,0,18.79v0.055
				c0,0.359,0.291,0.65,0.65,0.65s0.65-0.291,0.65-0.65V18.79C1.3,18.431,1.009,18.14,0.65,18.14L0.65,18.14z M0.65,21.195
				c-0.359,0-0.65,0.291-0.65,0.649V21.9c0,0.358,0.291,0.649,0.65,0.649S1.3,22.259,1.3,21.9v-0.056
				C1.3,21.486,1.009,21.195,0.65,21.195L0.65,21.195z M0.65,24.25C0.291,24.25,0,24.541,0,24.9v0.055c0,0.359,0.291,0.65,0.65,0.65
				s0.65-0.291,0.65-0.65V24.9C1.3,24.541,1.009,24.25,0.65,24.25L0.65,24.25z M0.65,27.305c-0.359,0-0.65,0.291-0.65,0.65v0.055
				c0,0.359,0.291,0.65,0.65,0.65s0.65-0.291,0.65-0.65v-0.055C1.3,27.596,1.009,27.305,0.65,27.305L0.65,27.305z M0.65,30.36
				C0.291,30.36,0,30.651,0,31.01v0.056c0,0.358,0.291,0.649,0.65,0.649s0.65-0.291,0.65-0.649V31.01
				C1.3,30.651,1.009,30.36,0.65,30.36L0.65,30.36z M0.65,33.415c-0.359,0-0.65,0.291-0.65,0.65v0.055c0,0.359,0.291,0.65,0.65,0.65
				s0.65-0.291,0.65-0.65v-0.055C1.3,33.706,1.009,33.415,0.65,33.415L0.65,33.415z M1.034,36.139c-0.09,0-0.183,0.019-0.27,0.059
				c-0.324,0.147-0.467,0.527-0.323,0.852c0.001,0.003,0.002,0.005,0.004,0.008c0.005,0.011,0.01,0.022,0.015,0.033
				c0.004,0.008,0.008,0.017,0.012,0.024c0.111,0.232,0.341,0.368,0.583,0.368c0.092,0,0.186-0.02,0.274-0.062
				c0.325-0.152,0.467-0.54,0.316-0.866l-0.017-0.037C1.518,36.279,1.281,36.139,1.034,36.139L1.034,36.139z M2.788,38.091
				c-0.223,0-0.44,0.114-0.562,0.318c-0.183,0.307-0.084,0.7,0.22,0.885c0.002,0.001,0.004,0.002,0.006,0.003l0,0.001
				c0.016,0.009,0.031,0.019,0.047,0.027c0.002,0.002,0.005,0.003,0.007,0.005c0.102,0.058,0.212,0.085,0.321,0.085
				c0.223,0,0.439-0.115,0.559-0.321c0.181-0.311,0.076-0.71-0.233-0.892l-0.035-0.021C3.015,38.12,2.9,38.091,2.788,38.091
				L2.788,38.091z M5.435,38.7H5.38c-0.359,0-0.65,0.291-0.65,0.649c0,0.359,0.291,0.65,0.65,0.65h0.055
				c0.359,0,0.65-0.291,0.65-0.65C6.085,38.991,5.794,38.7,5.435,38.7L5.435,38.7z M8.49,38.7H8.435c-0.359,0-0.65,0.291-0.65,0.649
				c0,0.359,0.291,0.65,0.65,0.65H8.49c0.359,0,0.65-0.291,0.65-0.65C9.14,38.991,8.849,38.7,8.49,38.7L8.49,38.7z M11.545,38.7
				H11.49c-0.359,0-0.65,0.291-0.65,0.649c0,0.359,0.291,0.65,0.65,0.65h0.055c0.359,0,0.65-0.291,0.65-0.65
				C12.195,38.991,11.904,38.7,11.545,38.7L11.545,38.7z M14.6,38.7h-0.055c-0.359,0-0.65,0.291-0.65,0.649
				c0,0.359,0.291,0.65,0.65,0.65H14.6c0.359,0,0.65-0.291,0.65-0.65C15.25,38.991,14.959,38.7,14.6,38.7L14.6,38.7z M17.655,38.7
				H17.6c-0.359,0-0.65,0.291-0.65,0.649c0,0.359,0.291,0.65,0.65,0.65h0.055c0.359,0,0.65-0.291,0.65-0.65
				C18.305,38.991,18.014,38.7,17.655,38.7L17.655,38.7z M20.71,38.7h-0.055c-0.359,0-0.65,0.291-0.65,0.649
				c0,0.359,0.291,0.65,0.65,0.65h0.055c0.359,0,0.65-0.291,0.65-0.65C21.36,38.991,21.069,38.7,20.71,38.7L20.71,38.7z
				 M23.765,38.7H23.71c-0.359,0-0.65,0.291-0.65,0.649c0,0.359,0.291,0.65,0.65,0.65h0.055c0.359,0,0.65-0.291,0.65-0.65
				C24.415,38.991,24.124,38.7,23.765,38.7L23.765,38.7z M26.82,38.7h-0.055c-0.359,0-0.65,0.291-0.65,0.649
				c0,0.359,0.291,0.65,0.65,0.65h0.055c0.359,0,0.65-0.291,0.65-0.65C27.47,38.991,27.179,38.7,26.82,38.7L26.82,38.7z
				 M29.875,38.7H29.82c-0.359,0-0.65,0.291-0.65,0.649c0,0.359,0.291,0.65,0.65,0.65h0.055c0.359,0,0.65-0.291,0.65-0.65
				C30.525,38.991,30.234,38.7,29.875,38.7L29.875,38.7z M32.93,38.7h-0.055c-0.359,0-0.65,0.291-0.65,0.649
				c0,0.359,0.291,0.65,0.65,0.65h0.055c0.359,0,0.65-0.291,0.65-0.65C33.58,38.991,33.289,38.7,32.93,38.7L32.93,38.7z
				 M35.985,38.7H35.93c-0.359,0-0.65,0.291-0.65,0.649c0,0.359,0.291,0.65,0.65,0.65h0.055c0.359,0,0.65-0.291,0.65-0.65
				C36.635,38.991,36.344,38.7,35.985,38.7L35.985,38.7z M39.04,38.7h-0.055c-0.359,0-0.65,0.291-0.65,0.649
				c0,0.359,0.291,0.65,0.65,0.65h0.055c0.359,0,0.65-0.291,0.65-0.65C39.69,38.991,39.399,38.7,39.04,38.7L39.04,38.7z
				 M42.095,38.7H42.04c-0.359,0-0.65,0.291-0.65,0.649c0,0.359,0.291,0.65,0.65,0.65h0.055c0.359,0,0.65-0.291,0.65-0.65
				C42.745,38.991,42.454,38.7,42.095,38.7L42.095,38.7z M45.15,38.7h-0.055c-0.359,0-0.65,0.291-0.65,0.649
				c0,0.359,0.291,0.65,0.65,0.65h0.055c0.359,0,0.65-0.291,0.65-0.65C45.8,38.991,45.509,38.7,45.15,38.7L45.15,38.7z M48.205,38.7
				H48.15c-0.359,0-0.65,0.291-0.65,0.649c0,0.359,0.291,0.65,0.65,0.65h0.055c0.359,0,0.65-0.291,0.65-0.65
				C48.855,38.991,48.564,38.7,48.205,38.7L48.205,38.7z M51.26,38.7h-0.055c-0.359,0-0.65,0.291-0.65,0.649
				c0,0.359,0.291,0.65,0.65,0.65h0.055c0.359,0,0.65-0.291,0.65-0.65C51.91,38.991,51.619,38.7,51.26,38.7L51.26,38.7z
				 M54.315,38.7H54.26c-0.359,0-0.65,0.291-0.65,0.649c0,0.359,0.291,0.65,0.65,0.65h0.055c0.359,0,0.65-0.291,0.65-0.65
				C54.965,38.991,54.674,38.7,54.315,38.7L54.315,38.7z M57.37,38.7h-0.055c-0.359,0-0.65,0.291-0.65,0.649
				c0,0.359,0.291,0.65,0.65,0.65h0.055c0.359,0,0.65-0.291,0.65-0.65C58.02,38.991,57.729,38.7,57.37,38.7L57.37,38.7z
				 M60.425,38.7H60.37c-0.359,0-0.65,0.291-0.65,0.649c0,0.359,0.291,0.65,0.65,0.65h0.055c0.359,0,0.65-0.291,0.65-0.65
				C61.075,38.991,60.784,38.7,60.425,38.7L60.425,38.7z M63.48,38.7h-0.055c-0.359,0-0.65,0.291-0.65,0.649
				c0,0.359,0.291,0.65,0.65,0.65h0.055c0.359,0,0.65-0.291,0.65-0.65C64.13,38.991,63.839,38.7,63.48,38.7L63.48,38.7z
				 M66.535,38.7H66.48c-0.359,0-0.65,0.291-0.65,0.649c0,0.359,0.291,0.65,0.65,0.65h0.055c0.359,0,0.65-0.291,0.65-0.65
				C67.185,38.991,66.894,38.7,66.535,38.7L66.535,38.7z M69.59,38.7h-0.055c-0.359,0-0.65,0.291-0.65,0.649
				c0,0.359,0.291,0.65,0.65,0.65h0.055c0.359,0,0.65-0.291,0.65-0.65C70.24,38.991,69.949,38.7,69.59,38.7L69.59,38.7z
				 M72.646,38.7H72.59c-0.358,0-0.649,0.291-0.649,0.649c0,0.359,0.291,0.65,0.649,0.65h0.056c0.358,0,0.649-0.291,0.649-0.65
				C73.295,38.991,73.004,38.7,72.646,38.7L72.646,38.7z M75.7,38.7h-0.055c-0.359,0-0.65,0.291-0.65,0.649
				c0,0.359,0.291,0.65,0.65,0.65H75.7c0.359,0,0.65-0.291,0.65-0.65C76.351,38.991,76.06,38.7,75.7,38.7L75.7,38.7z M78.755,38.7
				H78.7c-0.359,0-0.65,0.291-0.65,0.649c0,0.359,0.291,0.65,0.65,0.65h0.055c0.359,0,0.65-0.291,0.65-0.65
				C79.405,38.991,79.114,38.7,78.755,38.7L78.755,38.7z M81.811,38.7h-0.056c-0.358,0-0.649,0.291-0.649,0.649
				c0,0.359,0.291,0.65,0.649,0.65h0.056c0.358,0,0.649-0.291,0.649-0.65C82.46,38.991,82.169,38.7,81.811,38.7L81.811,38.7z
				 M84.865,38.7h-0.055c-0.359,0-0.65,0.291-0.65,0.649c0,0.359,0.291,0.65,0.65,0.65h0.055c0.358,0,0.649-0.291,0.649-0.65
				C85.515,38.991,85.224,38.7,84.865,38.7L84.865,38.7z M87.92,38.7h-0.055c-0.359,0-0.65,0.291-0.65,0.649
				c0,0.359,0.291,0.65,0.65,0.65h0.055c0.359,0,0.65-0.291,0.65-0.65C88.57,38.991,88.279,38.7,87.92,38.7L87.92,38.7z
				 M90.976,38.7H90.92c-0.358,0-0.649,0.291-0.649,0.649c0,0.359,0.291,0.65,0.649,0.65h0.056c0.358,0,0.649-0.291,0.649-0.65
				C91.625,38.991,91.334,38.7,90.976,38.7L90.976,38.7z M94.03,38.7h-0.055c-0.359,0-0.65,0.291-0.65,0.649
				c0,0.359,0.291,0.65,0.65,0.65h0.055c0.358,0,0.649-0.291,0.649-0.65C94.68,38.991,94.389,38.7,94.03,38.7L94.03,38.7z
				 M97.085,38.7H97.03c-0.359,0-0.65,0.291-0.65,0.649c0,0.359,0.291,0.65,0.65,0.65h0.055c0.359,0,0.65-0.291,0.65-0.65
				C97.735,38.991,97.444,38.7,97.085,38.7L97.085,38.7z M100.14,38.7h-0.055c-0.358,0-0.649,0.291-0.649,0.649
				c0,0.359,0.291,0.65,0.649,0.65h0.055c0.359,0,0.65-0.291,0.65-0.65C100.79,38.991,100.499,38.7,100.14,38.7L100.14,38.7z
				 M103.195,38.7h-0.056c-0.358,0-0.649,0.291-0.649,0.649c0,0.359,0.291,0.65,0.649,0.65h0.056c0.358,0,0.649-0.291,0.649-0.65
				C103.845,38.991,103.554,38.7,103.195,38.7L103.195,38.7z M106.25,38.7h-0.055c-0.359,0-0.65,0.291-0.65,0.649
				c0,0.359,0.291,0.65,0.65,0.65h0.055c0.359,0,0.65-0.291,0.65-0.65C106.9,38.991,106.609,38.7,106.25,38.7L106.25,38.7z
				 M109.305,38.7h-0.055c-0.359,0-0.649,0.291-0.649,0.649c0,0.359,0.29,0.65,0.649,0.65h0.055c0.359,0,0.65-0.291,0.65-0.65
				C109.955,38.991,109.664,38.7,109.305,38.7L109.305,38.7z M112.36,38.7h-0.056c-0.358,0-0.649,0.291-0.649,0.649
				c0,0.359,0.291,0.65,0.649,0.65h0.056c0.358,0,0.649-0.291,0.649-0.65C113.01,38.991,112.719,38.7,112.36,38.7L112.36,38.7z
				 M115.415,38.7h-0.055c-0.359,0-0.65,0.291-0.65,0.649c0,0.359,0.291,0.65,0.65,0.65h0.055c0.359,0,0.65-0.291,0.65-0.65
				C116.065,38.991,115.774,38.7,115.415,38.7L115.415,38.7z M118.47,38.7h-0.055c-0.359,0-0.65,0.291-0.65,0.649
				c0,0.359,0.291,0.65,0.65,0.65h0.055c0.359,0,0.65-0.291,0.65-0.65C119.12,38.991,118.829,38.7,118.47,38.7L118.47,38.7z
				 M121.525,38.7h-0.056c-0.358,0-0.649,0.291-0.649,0.649c0,0.359,0.291,0.65,0.649,0.65h0.056c0.358,0,0.649-0.291,0.649-0.65
				C122.175,38.991,121.884,38.7,121.525,38.7L121.525,38.7z M124.58,38.7h-0.055c-0.359,0-0.65,0.291-0.65,0.649
				c0,0.359,0.291,0.65,0.65,0.65h0.055c0.359,0,0.65-0.291,0.65-0.65C125.23,38.991,124.939,38.7,124.58,38.7L124.58,38.7z
				 M127.635,38.7h-0.055c-0.359,0-0.65,0.291-0.65,0.649c0,0.359,0.291,0.65,0.65,0.65h0.055c0.359,0,0.65-0.291,0.65-0.65
				C128.285,38.991,127.994,38.7,127.635,38.7L127.635,38.7z M130.596,38.659c-0.028,0-0.058,0.002-0.087,0.006l-0.04,0.005
				c-0.356,0.048-0.607,0.375-0.563,0.731c0.042,0.326,0.32,0.564,0.641,0.564c0.025,0,0.051-0.002,0.077-0.005
				c0.009-0.001,0.017-0.002,0.025-0.003c0.001,0,0.001-0.001,0.002-0.001c0.002,0,0.003,0,0.005,0c0.001,0,0.002,0,0.003-0.001
				c0.013-0.001,0.025-0.003,0.038-0.005c0.351-0.052,0.595-0.376,0.546-0.729C131.197,38.896,130.917,38.659,130.596,38.659
				L130.596,38.659z M132.958,37.532c-0.158,0-0.316,0.058-0.442,0.173l-0.03,0.027c-0.264,0.243-0.281,0.655-0.04,0.921
				c0.128,0.141,0.303,0.212,0.479,0.212c0.153,0,0.309-0.056,0.432-0.166c0.002-0.002,0.004-0.004,0.006-0.006l0,0
				c0.014-0.013,0.027-0.024,0.04-0.037c0.001,0,0.001-0.001,0.001-0.001c0.002-0.001,0.003-0.003,0.005-0.004
				c0.259-0.244,0.272-0.65,0.029-0.911C133.309,37.603,133.134,37.532,132.958,37.532L132.958,37.532z M134.257,35.257
				c-0.3,0-0.571,0.208-0.638,0.513l-0.009,0.04c-0.077,0.351,0.144,0.699,0.494,0.778c0.048,0.011,0.097,0.016,0.144,0.016
				c0.295,0,0.56-0.202,0.629-0.501c0-0.001,0-0.003,0.001-0.005c0-0.001,0-0.001,0-0.002c0.001-0.004,0.002-0.009,0.003-0.013
				v-0.001c0.001-0.001,0.001-0.002,0.001-0.003c0.004-0.016,0.007-0.03,0.01-0.046c0.071-0.348-0.149-0.688-0.497-0.762
				C134.348,35.262,134.303,35.257,134.257,35.257L134.257,35.257z M134.35,32.345c-0.358,0-0.649,0.291-0.649,0.65v0.055
				c0,0.359,0.291,0.65,0.649,0.65c0.359,0,0.65-0.291,0.65-0.65v-0.055C135,32.636,134.709,32.345,134.35,32.345L134.35,32.345z
				 M134.35,29.29c-0.358,0-0.649,0.291-0.649,0.649v0.056c0,0.358,0.291,0.649,0.649,0.649c0.359,0,0.65-0.291,0.65-0.649v-0.056
				C135,29.581,134.709,29.29,134.35,29.29L134.35,29.29z M134.35,26.234c-0.358,0-0.649,0.291-0.649,0.65v0.055
				c0,0.359,0.291,0.65,0.649,0.65c0.359,0,0.65-0.291,0.65-0.65v-0.055C135,26.525,134.709,26.234,134.35,26.234L134.35,26.234z
				 M134.35,23.18c-0.358,0-0.649,0.291-0.649,0.65v0.055c0,0.359,0.291,0.65,0.649,0.65c0.359,0,0.65-0.291,0.65-0.65V23.83
				C135,23.471,134.709,23.18,134.35,23.18L134.35,23.18z M134.35,20.125c-0.358,0-0.649,0.291-0.649,0.649v0.056
				c0,0.358,0.291,0.649,0.649,0.649c0.359,0,0.65-0.291,0.65-0.649v-0.056C135,20.416,134.709,20.125,134.35,20.125L134.35,20.125z
				 M134.35,17.07c-0.358,0-0.649,0.291-0.649,0.65v0.055c0,0.359,0.291,0.65,0.649,0.65c0.359,0,0.65-0.291,0.65-0.65V17.72
				C135,17.361,134.709,17.07,134.35,17.07L134.35,17.07z M134.35,14.015c-0.358,0-0.649,0.291-0.649,0.65v0.055
				c0,0.359,0.291,0.65,0.649,0.65c0.359,0,0.65-0.291,0.65-0.65v-0.055C135,14.306,134.709,14.015,134.35,14.015L134.35,14.015z
				 M134.35,10.96c-0.358,0-0.649,0.291-0.649,0.65v0.055c0,0.359,0.291,0.65,0.649,0.65c0.359,0,0.65-0.291,0.65-0.65V11.61
				C135,11.251,134.709,10.96,134.35,10.96L134.35,10.96z M134.35,7.905c-0.358,0-0.649,0.291-0.649,0.65V8.61
				c0,0.359,0.291,0.65,0.649,0.65c0.359,0,0.65-0.291,0.65-0.65V8.555C135,8.196,134.709,7.905,134.35,7.905L134.35,7.905z
				 M134.35,4.85c-0.358,0-0.649,0.291-0.649,0.65v0.055c0,0.359,0.291,0.65,0.649,0.65c0.359,0,0.65-0.291,0.65-0.65V5.5
				C135,5.141,134.709,4.85,134.35,4.85L134.35,4.85z M133.793,2.224c-0.107,0-0.217,0.027-0.317,0.084
				c-0.313,0.177-0.425,0.574-0.25,0.888l0.02,0.035c0.12,0.214,0.343,0.335,0.572,0.335c0.106,0,0.215-0.026,0.314-0.081
				c0.312-0.171,0.426-0.561,0.257-0.873c-0.003-0.005-0.006-0.01-0.009-0.016c0-0.001-0.001-0.002-0.002-0.003c0,0,0,0,0-0.001
				c-0.007-0.012-0.014-0.024-0.021-0.036C134.239,2.343,134.02,2.224,133.793,2.224L133.793,2.224z M131.88,0.43
				c-0.24,0-0.47,0.134-0.582,0.365c-0.156,0.323-0.021,0.713,0.3,0.872l0.037,0.018c0.092,0.045,0.19,0.067,0.287,0.067
				c0.24,0,0.472-0.133,0.586-0.362c0.159-0.319,0.03-0.705-0.286-0.865c-0.003-0.001-0.005-0.002-0.007-0.003
				c-0.001,0-0.001,0-0.001,0c-0.017-0.008-0.032-0.016-0.049-0.024c0,0-0.001,0-0.001,0c-0.002-0.001-0.004-0.002-0.007-0.003
				C132.067,0.45,131.973,0.43,131.88,0.43L131.88,0.43z"/>
		</g>
	</g>
	<g>
		<path fill="#FFFFFF" stroke="#FFFFFF" stroke-width="0.2" stroke-miterlimit="10" d="M47.418,10.243
			c0,0.838-0.248,1.505-0.745,2.003c-0.564,0.592-1.3,0.888-2.204,0.888c-0.866,0-1.603-0.3-2.208-0.9
			c-0.606-0.601-0.909-1.345-0.909-2.233c0-0.889,0.303-1.633,0.909-2.233c0.605-0.601,1.342-0.901,2.208-0.901
			c0.43,0,0.841,0.084,1.231,0.251c0.391,0.168,0.704,0.391,0.938,0.67l-0.527,0.528c-0.397-0.475-0.944-0.712-1.643-0.712
			c-0.632,0-1.178,0.222-1.639,0.666s-0.69,1.021-0.69,1.73s0.23,1.286,0.691,1.73s1.007,0.666,1.639,0.666
			c0.67,0,1.229-0.223,1.676-0.67c0.29-0.291,0.458-0.696,0.503-1.215h-2.179v-0.72h2.907C47.405,9.947,47.418,10.098,47.418,10.243
			z"/>
		<path fill="#FFFFFF" stroke="#FFFFFF" stroke-width="0.2" stroke-miterlimit="10" d="M52.028,7.737h-2.732V9.64h2.464v0.721
			h-2.464v1.902h2.732V13h-3.503V7h3.503V7.737z"/>
		<path fill="#FFFFFF" stroke="#FFFFFF" stroke-width="0.2" stroke-miterlimit="10" d="M55.279,13h-0.771V7.737h-1.676V7h4.123
			v0.737h-1.676V13z"/>
		<path fill="#FFFFFF" stroke="#FFFFFF" stroke-width="0.2" stroke-miterlimit="10" d="M59.938,13V7h0.771v6H59.938z"/>
		<path fill="#FFFFFF" stroke="#FFFFFF" stroke-width="0.2" stroke-miterlimit="10" d="M64.128,13h-0.771V7.737h-1.676V7h4.123
			v0.737h-1.676V13z"/>
		<path fill="#FFFFFF" stroke="#FFFFFF" stroke-width="0.2" stroke-miterlimit="10" d="M73.609,12.225
			c-0.59,0.606-1.323,0.909-2.2,0.909s-1.61-0.303-2.199-0.909c-0.59-0.606-0.884-1.348-0.884-2.225s0.294-1.619,0.884-2.225
			c0.589-0.606,1.322-0.91,2.199-0.91c0.872,0,1.604,0.305,2.196,0.914c0.592,0.609,0.888,1.349,0.888,2.221
			C74.493,10.877,74.198,11.619,73.609,12.225z M69.779,11.722c0.443,0.45,0.986,0.674,1.63,0.674c0.643,0,1.187-0.225,1.63-0.674
			c0.443-0.45,0.667-1.024,0.667-1.722s-0.224-1.272-0.667-1.722c-0.443-0.45-0.987-0.674-1.63-0.674
			c-0.644,0-1.187,0.225-1.63,0.674c-0.443,0.45-0.666,1.024-0.666,1.722S69.336,11.272,69.779,11.722z"/>
		<path fill="#FFFFFF" stroke="#FFFFFF" stroke-width="0.2" stroke-miterlimit="10" d="M75.575,13V7h0.938l2.916,4.667h0.032
			l-0.032-1.156V7H80.2v6h-0.806l-3.051-4.894h-0.033l0.033,1.156V13H75.575z"/>
	</g>
	<path fill="#FFFFFF" d="M68.137,21.751c-2.353,0-4.27,1.789-4.27,4.253c0,2.449,1.917,4.253,4.27,4.253
		c2.352,0,4.27-1.804,4.27-4.253C72.404,23.54,70.488,21.751,68.137,21.751z M68.137,28.583c-1.29,0-2.401-1.063-2.401-2.578
		c0-1.53,1.112-2.577,2.401-2.577c1.288,0,2.399,1.047,2.399,2.577C70.536,27.52,69.425,28.583,68.137,28.583z M58.822,21.751
		c-2.352,0-4.269,1.789-4.269,4.253c0,2.449,1.917,4.253,4.269,4.253c2.353,0,4.27-1.804,4.27-4.253
		C63.092,23.54,61.175,21.751,58.822,21.751z M58.822,28.583c-1.289,0-2.4-1.063-2.4-2.578c0-1.53,1.112-2.577,2.4-2.577
		c1.289,0,2.4,1.047,2.4,2.577C61.223,27.52,60.111,28.583,58.822,28.583z M47.744,23.057v1.805h4.318
		c-0.129,1.015-0.467,1.756-0.983,2.271c-0.628,0.628-1.611,1.321-3.335,1.321c-2.658,0-4.736-2.143-4.736-4.801
		s2.078-4.801,4.736-4.801c1.434,0,2.481,0.564,3.254,1.289l1.273-1.273c-1.08-1.031-2.513-1.82-4.527-1.82
		c-3.641,0-6.702,2.964-6.702,6.605c0,3.641,3.061,6.604,6.702,6.604c1.965,0,3.448-0.646,4.607-1.853
		c1.192-1.192,1.563-2.868,1.563-4.221c0-0.418-0.032-0.806-0.097-1.127H47.744L47.744,23.057z M93.052,24.458
		c-0.354-0.95-1.434-2.707-3.641-2.707c-2.19,0-4.013,1.724-4.013,4.253c0,2.385,1.806,4.253,4.222,4.253
		c1.948,0,3.077-1.192,3.545-1.885l-1.45-0.968c-0.482,0.709-1.145,1.177-2.095,1.177s-1.627-0.435-2.062-1.289l5.687-2.353
		L93.052,24.458z M87.252,25.876c-0.048-1.644,1.273-2.481,2.225-2.481c0.74,0,1.369,0.371,1.578,0.902L87.252,25.876z M82.629,30
		h1.868V17.499h-1.868V30z M79.566,22.702h-0.063c-0.419-0.5-1.226-0.951-2.239-0.951c-2.127,0-4.076,1.869-4.076,4.271
		c0,2.383,1.949,4.236,4.076,4.236c1.016,0,1.82-0.451,2.239-0.966h0.063v0.612c0,1.627-0.869,2.496-2.271,2.496
		c-1.144,0-1.853-0.82-2.144-1.514l-1.627,0.678c0.468,1.127,1.707,2.513,3.771,2.513c2.19,0,4.044-1.289,4.044-4.431V22.01h-1.771
		v0.692H79.566z M77.425,28.583c-1.288,0-2.368-1.08-2.368-2.562c0-1.5,1.08-2.594,2.368-2.594c1.272,0,2.271,1.094,2.271,2.594
		C79.695,27.503,78.697,28.583,77.425,28.583z M101.807,17.499h-4.472V30H99.2v-4.736h2.604c2.068,0,4.103-1.496,4.103-3.882
		C105.907,18.997,103.874,17.499,101.807,17.499z M101.854,23.523H99.2v-4.285h2.653c1.396,0,2.188,1.155,2.188,2.143
		C104.041,22.35,103.249,23.523,101.854,23.523z M113.387,21.729c-1.352,0-2.75,0.596-3.33,1.914l1.656,0.691
		c0.354-0.691,1.014-0.917,1.705-0.917c0.965,0,1.945,0.579,1.962,1.608v0.129c-0.338-0.193-1.062-0.482-1.946-0.482
		c-1.785,0-3.603,0.98-3.603,2.814c0,1.673,1.464,2.75,3.104,2.75c1.254,0,1.945-0.563,2.379-1.223h0.064v0.965h1.803v-4.793
		C117.182,22.967,115.523,21.729,113.387,21.729z M113.16,28.58c-0.61,0-1.463-0.307-1.463-1.063c0-0.965,1.062-1.334,1.979-1.334
		c0.819,0,1.206,0.176,1.704,0.418C115.234,27.76,114.238,28.58,113.16,28.58z M123.743,22.002l-2.14,5.42h-0.063l-2.22-5.42h-2.01
		l3.328,7.575l-1.897,4.214h1.946l5.131-11.789H123.743z M106.938,30h1.864V17.499h-1.864V30z"/>
	<g>
		
			<linearGradient id="SVGID_1_" gradientUnits="userSpaceOnUse" x1="21.7617" y1="668.6445" x2="4.9788" y2="685.4274" gradientTransform="matrix(1 0 0 1 0.04 -659.9355)">
			<stop  offset="0" style="stop-color:#00A0FF"/>
			<stop  offset="0.0066" style="stop-color:#00A1FF"/>
			<stop  offset="0.2601" style="stop-color:#00BEFF"/>
			<stop  offset="0.5122" style="stop-color:#00D2FF"/>
			<stop  offset="0.7604" style="stop-color:#00DFFF"/>
			<stop  offset="1" style="stop-color:#00E3FF"/>
		</linearGradient>
		<path fill="url(#SVGID_1_)" d="M10.436,7.538c-0.291,0.308-0.463,0.786-0.463,1.405v22.116c0,0.621,0.172,1.098,0.463,1.405
			l0.074,0.072l12.389-12.389v-0.146v-0.146l-12.39-12.39L10.436,7.538z"/>
		
			<linearGradient id="SVGID_2_" gradientUnits="userSpaceOnUse" x1="33.7935" y1="679.9365" x2="9.5976" y2="679.9365" gradientTransform="matrix(1 0 0 1 0.04 -659.9355)">
			<stop  offset="0" style="stop-color:#FFE000"/>
			<stop  offset="0.4087" style="stop-color:#FFBD00"/>
			<stop  offset="0.7754" style="stop-color:#FFA500"/>
			<stop  offset="1" style="stop-color:#FF9C00"/>
		</linearGradient>
		<path fill="url(#SVGID_2_)" d="M27.028,24.277l-4.129-4.13v-0.146v-0.146l4.13-4.13l0.093,0.053l4.893,2.78
			c1.397,0.794,1.397,2.092,0,2.887l-4.893,2.781L27.028,24.277z"/>
		
			<linearGradient id="SVGID_3_" gradientUnits="userSpaceOnUse" x1="24.7876" y1="682.2295" x2="2.0285" y2="704.9885" gradientTransform="matrix(1 0 0 1 0.04 -659.9355)">
			<stop  offset="0" style="stop-color:#FF3A44"/>
			<stop  offset="1" style="stop-color:#C31162"/>
		</linearGradient>
		<path fill="url(#SVGID_3_)" d="M27.122,24.225l-4.224-4.224L10.436,32.464c0.46,0.488,1.221,0.548,2.078,0.062L27.122,24.225"/>
		
			<linearGradient id="SVGID_4_" gradientUnits="userSpaceOnUse" x1="7.2573" y1="660.1113" x2="17.4196" y2="670.2736" gradientTransform="matrix(1 0 0 1 0.04 -659.9355)">
			<stop  offset="0" style="stop-color:#32A071"/>
			<stop  offset="0.0685" style="stop-color:#2DA771"/>
			<stop  offset="0.4762" style="stop-color:#15CF74"/>
			<stop  offset="0.8009" style="stop-color:#06E775"/>
			<stop  offset="1" style="stop-color:#00F076"/>
		</linearGradient>
		<path fill="url(#SVGID_4_)" d="M27.122,15.777l-14.608-8.3c-0.857-0.487-1.618-0.426-2.078,0.062l12.463,12.463L27.122,15.777z"/>
		<g>
			<path opacity="0.2" enable-background="new    " d="M27.029,24.132L12.514,32.38c-0.812,0.461-1.538,0.431-2.004,0.011l0,0
				l-0.074,0.074l0,0l0.074,0.072l0,0c0.466,0.42,1.192,0.451,2.004-0.012l14.608-8.299L27.029,24.132z"/>
			<path opacity="0.12" enable-background="new    " d="M10.436,32.318c-0.291-0.309-0.463-0.787-0.463-1.405v0.146
				c0,0.619,0.172,1.098,0.463,1.405l0.074-0.073L10.436,32.318z"/>
		</g>
		<path opacity="0.12" enable-background="new    " d="M32.015,21.299l-4.986,2.833l0.093,0.093l4.893-2.779
			c0.699-0.397,1.048-0.92,1.048-1.443l0,0C33.004,20.475,32.648,20.938,32.015,21.299z"/>
		<path opacity="0.25" fill="#FFFFFF" enable-background="new    " d="M12.514,7.623l19.501,11.08
			c0.634,0.36,0.989,0.824,1.048,1.298l0,0c0-0.523-0.349-1.047-1.048-1.444L12.514,7.477c-1.398-0.794-2.541-0.134-2.541,1.466
			v0.146C9.973,7.489,11.116,6.829,12.514,7.623z"/>
	</g>
</g>
</svg>
