<?xml version="1.0" encoding="utf-8"?>
<!-- Generator: Adobe Illustrator 16.0.0, SVG Export Plug-In . SVG Version: 6.00 Build 0)  -->
<!DOCTYPE svg PUBLIC "-//W3C//DTD SVG 1.1//EN" "http://www.w3.org/Graphics/SVG/1.1/DTD/svg11.dtd">
<svg version="1.1" id="Layer_1" xmlns="http://www.w3.org/2000/svg" xmlns:xlink="http://www.w3.org/1999/xlink" x="0px" y="0px"
	 width="46.809px" height="51.732px" viewBox="0 0 46.809 51.732" enable-background="new 0 0 46.809 51.732" xml:space="preserve">
<g>
	<polygon fill="#28A5DF" points="23.404,16 30.241,3 16.567,3 	"/>
</g>
<g>
	<polygon fill="#FFFFFF" points="46.808,0 36.105,0 23.404,23.25 10.702,0 0,0 16.567,31.5 30.241,31.5 	"/>
</g>
<g>
	<path fill="#FFFFFF" d="M1.144,38l2.115,5.945L5.406,38h0.975l-2.55,6.939H2.699L0.16,38H1.144z"/>
	<path fill="#FFFFFF" d="M10.959,38v6.939h-0.896V38H10.959z"/>
	<path fill="#FFFFFF" d="M18.97,44.94l-1.812-2.835h-0.975v2.835h-0.896V38h2.284c0.787,0,1.378,0.188,1.771,0.565
		c0.395,0.377,0.592,0.877,0.592,1.501c0,0.564-0.158,1.02-0.474,1.363c-0.314,0.344-0.771,0.559-1.368,0.646l1.891,2.863
		L18.97,44.94L18.97,44.94z M16.184,41.456h1.31c1.018,0,1.525-0.446,1.525-1.339c0-0.894-0.51-1.34-1.525-1.34h-1.31V41.456z"/>
	<path fill="#FFFFFF" d="M28.066,38v0.728h-1.959v6.212h-0.896v-6.212h-1.958V38H28.066z"/>
	<path fill="#FFFFFF" d="M32.609,38v4.165c0,0.683,0.15,1.186,0.453,1.511c0.302,0.325,0.719,0.487,1.25,0.487
		c0.524,0,0.935-0.164,1.23-0.492c0.295-0.329,0.443-0.83,0.443-1.506V38h0.896v4.165c0,0.944-0.234,1.654-0.703,2.13
		c-0.471,0.477-1.099,0.714-1.886,0.714c-0.78,0-1.405-0.237-1.875-0.714c-0.469-0.476-0.703-1.187-0.703-2.13V38H32.609z"/>
	<path fill="#FFFFFF" d="M44.861,43.336H41.81l-0.581,1.604h-0.965l2.568-6.812h1.015l2.56,6.812h-0.965L44.861,43.336z
		 M44.605,42.637l-1.271-3.504l-1.27,3.504H44.605z"/>
</g>
</svg>
