<?xml version="1.0" encoding="utf-8"?>
<!-- Generator: Adobe Illustrator 16.0.0, SVG Export Plug-In . SVG Version: 6.00 Build 0)  -->
<!DOCTYPE svg PUBLIC "-//W3C//DTD SVG 1.1//EN" "http://www.w3.org/Graphics/SVG/1.1/DTD/svg11.dtd">
<svg version="1.1" id="Layer_1" xmlns="http://www.w3.org/2000/svg" xmlns:xlink="http://www.w3.org/1999/xlink" x="0px" y="0px"
	 width="274.209px" height="118.97px" viewBox="0 0 274.209 118.97" enable-background="new 0 0 274.209 118.97"
	 xml:space="preserve">
<g>
	<path fill="#FFFFFF" d="M57.635,8.386c0.181,0.4,0.093,0.671-0.257,0.814c-0.352,0.145-0.612,0.044-0.783-0.303
		c-0.663-1.281-1.493-2.452-2.493-3.512c-1-1.06-2.158-1.942-3.469-2.649c-1.314-0.706-2.762-1.186-4.343-1.44
		c-1.583-0.252-3.262-0.22-5.037,0.1c-2.714,0.49-5.634,1.34-8.757,2.551c-3.124,1.21-6.232,2.649-9.328,4.312
		c-3.097,1.664-6.038,3.515-8.823,5.554c-2.785,2.039-5.211,4.134-7.275,6.286c-2.065,2.152-3.64,4.324-4.727,6.513
		c-1.088,2.191-1.457,4.253-1.108,6.184c0.169,0.94,0.889,1.565,2.158,1.875c1.269,0.311,2.871,0.452,4.808,0.426
		c1.937-0.025,4.102-0.187,6.502-0.485c2.398-0.298,4.834-0.616,7.308-0.956c3.255-0.479,6.547-0.911,9.873-1.296
		c3.327-0.385,6.362-0.515,9.107-0.39c2.744,0.124,5.057,0.611,6.934,1.457c1.877,0.847,2.996,2.263,3.354,4.247
		c0.217,1.202,0.057,2.551-0.482,4.049c-0.538,1.5-1.355,3.021-2.452,4.566c-1.095,1.545-2.41,3.075-3.942,4.592
		c-1.533,1.517-3.143,2.898-4.831,4.146c-1.688,1.248-3.423,2.316-5.203,3.203c-1.781,0.888-3.481,1.478-5.099,1.77
		c-1.671,0.302-3.006,0.07-4.005-0.693c-1.001-0.762-1.623-1.822-1.869-3.18c-0.244-1.357-0.091-2.894,0.462-4.611
		c0.551-1.717,1.535-3.431,2.953-5.143c0.317-0.326,0.584-0.347,0.797-0.063c0.212,0.285,0.203,0.529-0.03,0.733
		c-1.289,1.526-2.18,3.09-2.672,4.687c-0.493,1.598-0.632,2.997-0.415,4.199c0.189,1.043,0.672,1.859,1.454,2.446
		c0.779,0.587,1.821,0.764,3.127,0.528c2.296-0.415,4.756-1.425,7.377-3.03c2.622-1.605,4.995-3.463,7.122-5.571
		c2.125-2.108,3.835-4.29,5.126-6.545c1.291-2.254,1.785-4.217,1.484-5.888c-0.32-1.773-1.353-3.016-3.098-3.726
		c-1.745-0.709-3.932-1.096-6.557-1.162c-2.627-0.063-5.536,0.097-8.727,0.484c-3.193,0.387-6.39,0.816-9.592,1.286
		c-2.787,0.396-5.458,0.756-8.013,1.082c-2.557,0.328-4.844,0.484-6.868,0.472c-2.024-0.012-3.674-0.267-4.95-0.764
		s-2.021-1.346-2.238-2.547c-0.368-2.036,0-4.178,1.105-6.426c1.102-2.247,2.704-4.503,4.801-6.77
		c2.099-2.265,4.575-4.45,7.428-6.555c2.856-2.105,5.862-4.036,9.023-5.793c3.16-1.755,6.337-3.259,9.536-4.51
		c3.196-1.25,6.206-2.131,9.025-2.64c1.931-0.348,3.755-0.395,5.474-0.138c1.715,0.256,3.278,0.77,4.684,1.539
		c1.405,0.772,2.658,1.731,3.754,2.881C56.065,5.732,56.953,7.001,57.635,8.386z"/>
	<path fill="#FFFFFF" d="M56.449,33.183c0.047-0.333,0.259-0.505,0.634-0.52c0.374-0.013,0.548,0.199,0.519,0.634l-0.064,0.982
		c3.921-1.57,7.883-2.986,11.888-4.248c4.003-1.261,8.289-2.385,12.854-3.371c0.417-0.076,0.662,0.083,0.733,0.475
		c0.07,0.392-0.108,0.599-0.535,0.622c-4.61,1.048-8.916,2.203-12.918,3.463c-4.005,1.262-8.045,2.693-12.123,4.29
		c0.026,0.75,0.056,1.514,0.09,2.288c0.031,0.777,0.114,1.53,0.246,2.261c0.178,0.992,0.443,1.941,0.796,2.848
		c0.352,0.906,0.832,1.697,1.438,2.369c0.606,0.672,1.334,1.201,2.187,1.586c0.851,0.386,1.891,0.549,3.12,0.489
		c0.479-0.034,0.712,0.141,0.701,0.52C66,48.25,65.78,48.451,65.354,48.475c-1.387,0.088-2.59-0.086-3.611-0.521
		c-1.022-0.437-1.873-1.038-2.55-1.805c-0.678-0.767-1.217-1.666-1.619-2.699c-0.401-1.032-0.701-2.097-0.899-3.193
		c-0.245-1.357-0.37-2.79-0.373-4.3c-1.352,0.568-2.718,1.138-4.098,1.71c-1.378,0.573-2.792,1.179-4.241,1.816
		c-0.389,0.231-0.673,0.15-0.853-0.25c-0.18-0.399-0.064-0.662,0.342-0.79c1.554-0.657,3.056-1.292,4.508-1.905
		c1.454-0.612,2.907-1.211,4.365-1.799c0.058-0.278,0.078-0.54,0.063-0.779C56.37,33.722,56.391,33.462,56.449,33.183z"/>
	<path fill="#FFFFFF" d="M76.675,39.074c-0.058,0.281-0.245,0.436-0.563,0.465c-0.318,0.031-0.505-0.111-0.562-0.424
		c0.013-0.218-0.054-0.447-0.206-0.69c-0.152-0.242-0.411-0.331-0.774-0.265c-0.42,0.076-0.84,0.273-1.268,0.592
		c-0.428,0.32-0.817,0.701-1.17,1.141c-0.352,0.441-0.636,0.883-0.852,1.326c-0.217,0.443-0.292,0.848-0.226,1.213
		c0.038,0.209,0.159,0.283,0.363,0.218c0.203-0.063,0.459-0.216,0.766-0.462c0.307-0.243,0.642-0.546,1.008-0.91
		c0.367-0.361,0.724-0.763,1.077-1.204c0.266-0.317,0.508-0.469,0.726-0.456c0.218,0.016,0.451,0.109,0.699,0.278
		c0.862,0.601,1.76,0.95,2.695,1.051c0.935,0.102,1.767,0.085,2.499-0.047c1.304-0.235,2.675-0.778,4.113-1.632
		c1.436-0.852,2.736-1.787,3.9-2.806c0.39-0.232,0.674-0.215,0.857,0.047c0.181,0.265,0.162,0.524-0.062,0.78
		c-1.207,1.081-2.591,2.072-4.153,2.973c-1.563,0.903-3.049,1.48-4.458,1.734c-1.044,0.188-2.079,0.202-3.106,0.035
		c-1.028-0.164-2.025-0.537-2.991-1.118c-1.08,1.489-2.141,2.408-3.183,2.757c-1.042,0.35-1.656,0.004-1.844-1.042
		c-0.085-0.47-0.009-1.009,0.232-1.619c0.241-0.61,0.582-1.183,1.024-1.722c0.441-0.537,0.948-1.02,1.518-1.446
		c0.569-0.426,1.116-0.687,1.638-0.781c0.835-0.15,1.422,0.041,1.761,0.572C76.471,38.167,76.65,38.647,76.675,39.074z"/>
	<path fill="#FFFFFF" d="M111.608,32.364c0.286-0.213,0.544-0.191,0.779,0.062c0.235,0.255,0.24,0.51,0.018,0.765
		c-0.965,0.93-2.134,1.84-3.51,2.735c-1.374,0.896-2.829,1.725-4.362,2.486c-1.535,0.762-3.087,1.419-4.658,1.973
		c-1.572,0.553-3.063,0.957-4.472,1.211c-0.888,0.16-1.705,0.037-2.451-0.366c-0.748-0.405-1.186-0.971-1.319-1.703
		c-0.065-0.365-0.078-0.807-0.038-1.328c0.042-0.519,0.104-1.001,0.184-1.448c-1.12,0.364-2.084,0.404-2.891,0.117
		c-0.807-0.285-1.298-0.924-1.478-1.916c-0.046-0.261,0.107-0.45,0.463-0.57c0.356-0.116,0.567,0.006,0.633,0.372
		c0.113,0.625,0.507,1.014,1.18,1.161c0.674,0.148,1.504-0.029,2.492-0.53c0.295-0.161,0.545-0.112,0.754,0.146
		c0.208,0.259,0.232,0.539,0.07,0.836c-0.196,0.414-0.309,0.906-0.34,1.477c-0.031,0.572-0.009,1.067,0.065,1.485
		c0.076,0.419,0.363,0.743,0.865,0.976c0.499,0.233,1.036,0.297,1.611,0.194c1.356-0.245,2.795-0.639,4.315-1.183
		c1.518-0.543,3.021-1.178,4.507-1.905c1.487-0.726,2.879-1.517,4.182-2.372C109.51,34.186,110.644,33.294,111.608,32.364z"/>
	<path fill="#FFFFFF" d="M110.637,23.403c0.047-0.333,0.259-0.504,0.634-0.52c0.375-0.013,0.547,0.198,0.519,0.634l-0.064,0.982
		c3.921-1.569,7.883-2.986,11.887-4.248c4.004-1.261,8.289-2.385,12.854-3.371c0.419-0.075,0.662,0.083,0.732,0.475
		c0.071,0.392-0.106,0.6-0.534,0.622c-4.609,1.048-8.915,2.203-12.919,3.463c-4.004,1.262-8.046,2.692-12.123,4.29
		c0.027,0.75,0.057,1.514,0.089,2.288c0.031,0.777,0.115,1.53,0.247,2.261c0.179,0.992,0.443,1.941,0.796,2.848
		c0.352,0.906,0.833,1.697,1.438,2.368c0.606,0.672,1.335,1.201,2.187,1.586c0.851,0.385,1.89,0.548,3.122,0.488
		c0.478-0.034,0.711,0.141,0.698,0.52c-0.012,0.379-0.231,0.581-0.658,0.604c-1.387,0.088-2.59-0.085-3.611-0.52
		c-1.022-0.437-1.873-1.038-2.55-1.805c-0.678-0.767-1.217-1.666-1.62-2.699c-0.402-1.032-0.701-2.097-0.899-3.193
		c-0.244-1.358-0.37-2.791-0.372-4.3c-1.353,0.568-2.718,1.138-4.099,1.71c-1.379,0.572-2.792,1.179-4.239,1.816
		c-0.39,0.232-0.674,0.15-0.854-0.25c-0.18-0.398-0.065-0.661,0.342-0.79c1.554-0.657,3.056-1.292,4.508-1.905
		c1.453-0.613,2.907-1.212,4.365-1.799c0.058-0.278,0.077-0.54,0.062-0.779C110.558,23.943,110.578,23.684,110.637,23.403z"/>
	<path fill="#FFFFFF" d="M169.931,21.758c0.348-0.169,0.594-0.079,0.737,0.272c0.144,0.352,0.07,0.607-0.224,0.768
		c-2.403,1.028-4.794,2.119-7.173,3.276c-2.378,1.157-4.62,2.33-6.724,3.519l0.113,0.625c0.217,1.201,0.238,2.598,0.069,4.192
		c-0.171,1.594-0.596,3.126-1.271,4.596c-0.68,1.47-1.631,2.773-2.853,3.911c-1.225,1.138-2.804,1.88-4.733,2.229
		c-1.044,0.188-1.967,0.003-2.767-0.551c-0.802-0.558-1.288-1.305-1.457-2.244c-0.198-1.097-0.046-2.203,0.453-3.316
		c0.499-1.115,1.282-2.226,2.35-3.334c1.064-1.11,2.351-2.204,3.854-3.284c1.502-1.08,3.154-2.16,4.954-3.238
		c-0.336-0.963-0.792-1.395-1.366-1.291c-0.888,0.16-1.717,0.485-2.492,0.976c-0.774,0.491-1.683,0.83-2.726,1.018
		c-1.202,0.216-2.182,0.084-2.942-0.399c-0.762-0.482-1.135-1.426-1.118-2.831c0.058-0.279,0.255-0.45,0.595-0.512
		c0.339-0.062,0.516,0.097,0.53,0.471c0.002,0.916,0.265,1.542,0.784,1.88c0.519,0.338,1.17,0.435,1.953,0.294
		c0.939-0.169,1.796-0.498,2.57-0.989c0.773-0.49,1.656-0.825,2.648-1.004c0.991-0.179,1.803,0.431,2.432,1.825
		c2.156-1.197,4.396-2.37,6.724-3.518C165.18,23.95,167.539,22.837,169.931,21.758z M147.675,44.049
		c1.724-0.311,3.139-0.985,4.244-2.02c1.108-1.036,1.968-2.243,2.583-3.619c0.612-1.378,0.994-2.781,1.141-4.208
		c0.145-1.429,0.12-2.69-0.078-3.787l-0.041-0.234c-1.707,1.008-3.249,2.014-4.631,3.019c-1.383,1.003-2.563,2.011-3.538,3.023
		c-0.978,1.011-1.698,2.017-2.164,3.019c-0.466,1-0.614,1.971-0.445,2.911c0.114,0.625,0.447,1.132,1.002,1.517
		C146.302,44.055,146.944,44.181,147.675,44.049z"/>
	<path fill="#FFFFFF" d="M170.746,20.884c0.294-0.161,0.552-0.073,0.774,0.264c0.223,0.338,0.187,0.587-0.107,0.748
		c-0.391,0.232-0.689,0.597-0.895,1.092c-0.208,0.496-0.347,0.992-0.418,1.49c-0.073,0.498-0.063,0.929,0.028,1.289
		c0.094,0.361,0.297,0.513,0.608,0.457c0.418-0.075,0.701-0.45,0.85-1.124c0.146-0.673,0.103-1.365-0.132-2.078
		c-0.12-0.355-0.085-0.604,0.106-0.748c0.189-0.141,0.395-0.205,0.612-0.191c0.978,0.04,1.969,0.008,2.977-0.093
		c1.004-0.099,2.003-0.239,2.996-0.418c3.29-0.593,6.033-1.52,8.231-2.78c0.294-0.16,0.522-0.08,0.69,0.24
		c0.164,0.322,0.105,0.587-0.181,0.8c-2.197,1.26-5.047,2.206-8.544,2.836c-1.044,0.188-2.04,0.341-2.988,0.459
		c-0.95,0.118-1.801,0.19-2.55,0.216c0.185,0.723,0.141,1.526-0.132,2.41c-0.271,0.885-0.852,1.407-1.738,1.567
		c-0.731,0.132-1.253-0.071-1.564-0.606c-0.313-0.537-0.469-1.169-0.464-1.898c0.002-0.728,0.166-1.472,0.486-2.23
		C169.713,21.825,170.165,21.258,170.746,20.884z"/>
	<path fill="#FFFFFF" d="M186.426,17.73c0.109-0.289,0.323-0.381,0.638-0.276c0.314,0.104,0.443,0.298,0.389,0.577
		c-0.102,0.342-0.187,0.762-0.26,1.259c-0.071,0.498-0.105,0.977-0.104,1.434c0.002,0.459,0.033,0.858,0.095,1.196
		c0.061,0.34,0.222,0.486,0.482,0.439c0.73-0.132,1.468-0.616,2.206-1.449c0.739-0.833,1.341-1.751,1.808-2.752
		c0.271-0.587,0.666-0.632,1.188-0.134c0.594,0.594,1.249,1.096,1.97,1.505c0.72,0.409,1.63,0.514,2.725,0.316
		c0.628-0.113,1.313-0.344,2.059-0.695c0.746-0.35,1.496-0.742,2.255-1.175c0.757-0.433,1.446-0.868,2.069-1.303
		c0.62-0.436,1.092-0.816,1.41-1.144c0.268-0.318,0.556-0.356,0.869-0.116c0.313,0.24,0.309,0.523-0.009,0.85
		c-0.361,0.39-0.874,0.832-1.539,1.329c-0.665,0.498-1.402,0.969-2.212,1.411c-0.81,0.442-1.64,0.849-2.49,1.217
		c-0.85,0.37-1.587,0.61-2.214,0.723c-1.149,0.208-2.19,0.113-3.124-0.285c-0.935-0.398-1.692-0.868-2.274-1.41
		c-0.401,0.773-1.027,1.629-1.883,2.564c-0.856,0.937-1.728,1.484-2.615,1.645c-0.626,0.113-1.07-0.036-1.333-0.447
		c-0.264-0.41-0.412-0.937-0.446-1.577c-0.035-0.642-0.007-1.305,0.084-1.997C186.258,18.745,186.346,18.177,186.426,17.73z"/>
	<path fill="#FFFFFF" d="M228.128,11.336c0.284-0.213,0.544-0.191,0.779,0.062c0.234,0.254,0.239,0.51,0.016,0.766
		c-0.964,0.929-2.132,1.84-3.509,2.734c-1.374,0.896-2.829,1.725-4.361,2.486c-1.535,0.762-3.088,1.419-4.657,1.973
		c-1.571,0.552-3.063,0.957-4.472,1.211c-0.89,0.16-1.705,0.038-2.451-0.366c-0.748-0.405-1.187-0.971-1.318-1.703
		c-0.066-0.365-0.079-0.807-0.037-1.328c0.04-0.519,0.102-1.001,0.184-1.448c-1.122,0.364-2.084,0.404-2.89,0.117
		c-0.809-0.285-1.3-0.924-1.479-1.916c-0.046-0.261,0.107-0.45,0.465-0.569c0.355-0.117,0.567,0.006,0.633,0.372
		c0.113,0.626,0.506,1.014,1.179,1.162c0.675,0.148,1.503-0.029,2.493-0.531c0.294-0.16,0.546-0.111,0.753,0.147
		c0.209,0.259,0.231,0.539,0.071,0.836c-0.197,0.413-0.31,0.905-0.341,1.476c-0.031,0.572-0.008,1.067,0.066,1.485
		c0.076,0.418,0.362,0.743,0.862,0.976c0.5,0.233,1.037,0.297,1.612,0.194c1.357-0.245,2.796-0.639,4.315-1.183
		s3.021-1.178,4.507-1.905c1.487-0.726,2.881-1.516,4.181-2.372C226.032,13.158,227.165,12.266,228.128,11.336z"/>
	<path fill="#FFFFFF" d="M90.529,79.545c0.224-0.256,0.461-0.285,0.712-0.09c0.25,0.198,0.322,0.441,0.213,0.731
		c-0.976,1.471-1.898,3.227-2.77,5.27c-0.87,2.045-1.668,4.197-2.392,6.457c-0.724,2.262-1.359,4.571-1.903,6.932
		c-0.542,2.365-0.982,4.64-1.314,6.828c-0.333,2.189-0.537,4.194-0.613,6.015c-0.076,1.818-0.011,3.303,0.197,4.452
		c0.245,1.356,0.942,1.933,2.09,1.726c1.254-0.226,3.005-0.825,5.255-1.798c2.251-0.973,4.805-2.202,7.664-3.688
		c2.857-1.484,5.91-3.168,9.156-5.049c3.245-1.879,6.448-3.845,9.608-5.896c3.16-2.053,6.185-4.108,9.075-6.167
		c2.89-2.059,5.42-4.022,7.588-5.896s3.856-3.567,5.068-5.081c1.208-1.51,1.725-2.764,1.546-3.755
		c-0.208-1.147-1.112-1.901-2.713-2.259c-1.602-0.359-3.59-0.471-5.965-0.339c-2.374,0.133-5.003,0.431-7.884,0.896
		c-2.88,0.467-5.73,0.953-8.55,1.462c-2.192,0.396-4.296,0.763-6.311,1.1c-2.015,0.336-3.808,0.553-5.381,0.647
		c-1.573,0.096-2.837,0.04-3.79-0.166c-0.954-0.205-1.49-0.646-1.614-1.325c-0.084-0.471,0.057-1.034,0.422-1.693
		c0.367-0.658,0.893-1.4,1.579-2.226c0.687-0.823,1.486-1.697,2.399-2.617c0.912-0.92,1.851-1.842,2.814-2.772
		c1.198-1.132,2.411-2.323,3.642-3.568c1.231-1.245,2.322-2.439,3.275-3.583c0.953-1.142,1.7-2.234,2.239-3.275
		c0.541-1.04,0.745-1.925,0.612-2.658c-0.15-0.833-1.193-1.078-3.124-0.729c-1.828,0.33-4.178,1.119-7.053,2.364
		c-2.876,1.247-6.027,2.827-9.454,4.739c-3.429,1.912-7.014,4.083-10.752,6.508c-3.74,2.427-7.422,4.952-11.045,7.574
		c-3.624,2.622-7.048,5.303-10.273,8.039c-3.226,2.739-6.022,5.387-8.392,7.942c-2.368,2.559-4.189,4.935-5.465,7.132
		c-1.272,2.199-1.766,4.105-1.474,5.724c0.124,0.679,0.472,1.264,1.045,1.752c0.318,0.266,0.366,0.528,0.142,0.784
		s-0.459,0.299-0.706,0.127c-0.862-0.599-1.389-1.42-1.577-2.465c-0.312-1.722,0.174-3.736,1.456-6.044
		c1.282-2.306,3.129-4.77,5.54-7.389c2.412-2.618,5.253-5.327,8.52-8.128c3.269-2.799,6.735-5.54,10.402-8.224
		c3.666-2.683,7.406-5.257,11.22-7.725c3.813-2.468,7.459-4.662,10.941-6.584c3.48-1.921,6.682-3.522,9.604-4.806
		c2.922-1.282,5.296-2.088,7.124-2.417c1.252-0.226,2.264-0.219,3.035,0.019c0.771,0.238,1.232,0.775,1.382,1.609
		c0.17,0.94-0.022,1.973-0.573,3.095c-0.552,1.125-1.323,2.301-2.314,3.532c-0.99,1.229-2.126,2.486-3.403,3.768
		c-1.278,1.282-2.537,2.52-3.776,3.713c-0.965,0.93-1.87,1.821-2.712,2.673c-0.845,0.854-1.592,1.636-2.245,2.346
		c-0.653,0.713-1.158,1.355-1.512,1.932s-0.502,1.02-0.446,1.333c0.076,0.419,0.549,0.656,1.422,0.713
		c0.873,0.059,2.037,0.011,3.491-0.144s3.125-0.388,5.008-0.702c1.884-0.313,3.844-0.653,5.88-1.021
		c2.923-0.527,5.893-1.023,8.91-1.487c3.015-0.463,5.78-0.746,8.296-0.85c2.515-0.104,4.612,0.097,6.295,0.602
		c1.68,0.506,2.648,1.464,2.903,2.872c0.198,1.098-0.31,2.469-1.521,4.116c-1.213,1.647-2.922,3.452-5.128,5.411
		c-2.207,1.964-4.776,4.005-7.71,6.123c-2.933,2.121-6.003,4.225-9.21,6.312c-3.208,2.089-6.458,4.09-9.751,6.005
		c-3.293,1.916-6.41,3.623-9.344,5.125c-2.937,1.498-5.558,2.741-7.86,3.721c-2.303,0.981-4.08,1.586-5.333,1.812
		c-0.888,0.161-1.628,0.012-2.224-0.447c-0.596-0.459-0.982-1.185-1.161-2.176c-0.208-1.148-0.264-2.648-0.166-4.499
		c0.098-1.85,0.312-3.883,0.639-6.099c0.328-2.215,0.77-4.546,1.326-6.99s1.202-4.839,1.938-7.183
		c0.735-2.344,1.537-4.55,2.403-6.62S89.513,81.077,90.529,79.545z"/>
	<path fill="#FFFFFF" d="M140.823,94.323c0.11-0.288,0.321-0.382,0.637-0.277c0.314,0.104,0.445,0.299,0.388,0.576
		c-0.101,0.344-0.186,0.764-0.257,1.262c-0.073,0.498-0.107,0.976-0.105,1.434c0.001,0.458,0.032,0.857,0.094,1.196
		c0.061,0.339,0.221,0.484,0.484,0.437c0.729-0.132,1.465-0.614,2.203-1.448c0.74-0.835,1.343-1.75,1.808-2.753
		c0.271-0.586,0.668-0.631,1.19-0.134c0.592,0.595,1.248,1.098,1.969,1.506s1.63,0.514,2.725,0.315
		c0.627-0.112,1.313-0.345,2.059-0.693c0.746-0.35,1.496-0.741,2.255-1.176c0.757-0.432,1.446-0.867,2.068-1.304
		c0.622-0.435,1.093-0.815,1.411-1.143c0.267-0.317,0.555-0.357,0.869-0.117c0.313,0.239,0.309,0.523-0.009,0.851
		c-0.362,0.389-0.874,0.832-1.539,1.33c-0.665,0.497-1.401,0.966-2.212,1.408c-0.81,0.442-1.639,0.849-2.49,1.219
		c-0.851,0.369-1.587,0.609-2.214,0.723c-1.147,0.207-2.189,0.111-3.123-0.286c-0.936-0.396-1.693-0.866-2.276-1.408
		c-0.399,0.773-1.027,1.627-1.882,2.563c-0.856,0.937-1.728,1.484-2.615,1.644c-0.626,0.113-1.07-0.035-1.333-0.446
		c-0.265-0.409-0.412-0.937-0.446-1.577c-0.034-0.64-0.007-1.305,0.084-1.997C140.654,95.337,140.742,94.77,140.823,94.323z"/>
	<path fill="#FFFFFF" d="M160.14,92.939c-0.228-0.066-0.305-0.27-0.229-0.606c0.072-0.336,0.249-0.475,0.53-0.417
		c0.963,0.259,2.042,0.722,3.243,1.395c1.2,0.674,2.198,1.423,2.994,2.249c1.51-1.188,3.255-2.353,5.231-3.491
		c1.979-1.137,3.818-2.211,5.524-3.221c0.346-0.169,0.597-0.119,0.754,0.146c0.156,0.269,0.118,0.505-0.114,0.709
		c-1.653,0.999-3.474,2.11-5.464,3.331c-1.99,1.222-3.729,2.342-5.214,3.365c0.231,0.39,0.38,0.767,0.446,1.134
		c0.16,0.886-0.015,1.714-0.522,2.479c-0.509,0.766-1.312,1.249-2.407,1.446c-0.418,0.075-0.813-0.015-1.181-0.272
		c-0.371-0.256-0.593-0.594-0.669-1.011c-0.104-0.575,0.093-1.203,0.59-1.886c0.496-0.684,1.214-1.405,2.156-2.168
		c-0.664-0.689-1.547-1.324-2.649-1.906C162.057,93.63,161.05,93.207,160.14,92.939z M166.747,97.73
		c-0.057-0.313-0.127-0.542-0.206-0.689c-0.804,0.629-1.418,1.185-1.842,1.666c-0.427,0.479-0.605,0.904-0.539,1.271
		c0.056,0.313,0.24,0.44,0.556,0.383c0.782-0.141,1.342-0.471,1.68-0.99C166.732,98.852,166.851,98.303,166.747,97.73z"/>
	<path fill="#FFFFFF" d="M177.177,89.217c0.056-0.28,0.264-0.397,0.623-0.354c0.357,0.044,0.534,0.198,0.528,0.469
		c-0.125,1.101,0.131,1.917,0.767,2.449c0.634,0.533,1.448,0.71,2.44,0.53c0.99-0.178,2.068-0.48,3.232-0.905
		c1.163-0.427,2.325-0.932,3.485-1.52c1.161-0.586,2.297-1.235,3.408-1.95c1.111-0.713,2.111-1.443,3-2.198
		c0.276-0.265,0.542-0.273,0.804-0.024c0.26,0.25,0.258,0.533-0.008,0.851c-0.932,0.814-1.976,1.598-3.136,2.345
		c-1.158,0.749-2.344,1.421-3.557,2.018c-1.215,0.597-2.428,1.11-3.644,1.546c-1.215,0.434-2.346,0.747-3.389,0.934
		c-1.461,0.266-2.636,0.033-3.522-0.697C177.324,91.98,176.98,90.816,177.177,89.217z M179.685,82.054
		c-0.295,0.161-0.528,0.067-0.698-0.279c-0.171-0.346-0.108-0.6,0.187-0.761l2.173-0.959c0.397-0.18,0.669-0.092,0.813,0.259
		c0.146,0.352,0.041,0.612-0.303,0.781L179.685,82.054z"/>
	<path fill="#FFFFFF" d="M194.653,86.145c0.038-0.384,0.236-0.555,0.596-0.511c0.357,0.044,0.534,0.198,0.53,0.468l-0.054,1.951
		c0.911-0.919,1.799-1.753,2.661-2.502c0.862-0.747,1.607-1.179,2.233-1.291c0.678-0.122,1.171-0.012,1.477,0.339
		s0.57,0.693,0.792,1.028c0.293,0.433,0.691,0.847,1.194,1.241c0.501,0.394,1.303,0.492,2.398,0.294
		c1.044-0.188,2.422-0.691,4.133-1.513c1.712-0.82,3.911-2.148,6.601-3.98c0.294-0.162,0.532-0.11,0.714,0.151
		c0.183,0.266,0.157,0.498-0.075,0.702c-2.836,1.915-5.133,3.3-6.892,4.155c-1.759,0.857-3.188,1.383-4.282,1.581
		c-0.733,0.132-1.345,0.162-1.843,0.09c-0.499-0.071-0.932-0.221-1.296-0.454c-0.365-0.228-0.654-0.488-0.868-0.771
		c-0.212-0.286-0.425-0.571-0.639-0.855c-0.393-0.683-0.798-0.989-1.216-0.913c-0.575,0.104-1.23,0.505-1.966,1.203
		c-0.736,0.7-1.827,1.826-3.271,3.381c-0.086,0.126-0.256,0.223-0.513,0.294c-0.257,0.075-0.383-0.023-0.377-0.295L194.653,86.145z"
		/>
	<path fill="#FFFFFF" d="M222.229,78.093c0.313-0.055,0.503,0.1,0.569,0.466c0.065,0.364-0.059,0.575-0.371,0.632
		c-0.523,0.095-1.048,0.243-1.578,0.447c-0.528,0.204-1.012,0.438-1.448,0.705c-0.438,0.27-0.776,0.56-1.016,0.872
		c-0.24,0.313-0.337,0.599-0.289,0.859c0.074,0.42,0.311,0.686,0.711,0.802c0.396,0.118,0.813,0.19,1.252,0.22
		c0.27,0.004,0.418,0.154,0.444,0.444c0.024,0.293-0.093,0.461-0.354,0.51c-0.869,0.265-1.27,0.578-1.203,0.942
		c0.104,0.577,1.459,0.628,4.07,0.157c1.044-0.189,2.288-0.535,3.735-1.038c1.445-0.504,2.901-1.09,4.371-1.76
		c1.469-0.669,2.849-1.39,4.138-2.161s2.32-1.551,3.095-2.337c0.233-0.205,0.478-0.193,0.734,0.027
		c0.255,0.226,0.277,0.49,0.063,0.798c-0.775,0.786-1.845,1.586-3.206,2.398c-1.364,0.813-2.804,1.571-4.32,2.275
		c-1.517,0.706-3.024,1.315-4.521,1.827s-2.795,0.866-3.891,1.064c-1.516,0.274-2.756,0.349-3.721,0.229
		c-0.966-0.125-1.513-0.549-1.646-1.282c-0.046-0.259,0.04-0.516,0.265-0.774c0.224-0.253,0.456-0.458,0.699-0.61
		c-0.988-0.093-1.565-0.608-1.735-1.547c-0.075-0.417,0.034-0.855,0.329-1.313c0.295-0.457,0.69-0.879,1.188-1.265
		c0.496-0.386,1.069-0.719,1.719-0.997C220.962,78.404,221.602,78.208,222.229,78.093z"/>
	<path fill="#FFFFFF" d="M238.604,78.778c-0.227-0.065-0.304-0.269-0.229-0.604c0.073-0.336,0.249-0.477,0.53-0.419
		c0.963,0.259,2.043,0.722,3.245,1.395c1.198,0.674,2.196,1.424,2.992,2.25c1.51-1.189,3.254-2.354,5.231-3.492
		c1.979-1.137,3.82-2.211,5.524-3.219c0.346-0.169,0.597-0.121,0.755,0.146c0.156,0.27,0.118,0.504-0.115,0.708
		c-1.652,1.001-3.474,2.111-5.463,3.331c-1.991,1.222-3.729,2.343-5.215,3.367c0.231,0.389,0.381,0.767,0.446,1.133
		c0.16,0.887-0.014,1.713-0.522,2.479c-0.508,0.765-1.312,1.248-2.406,1.446c-0.419,0.074-0.813-0.017-1.183-0.274
		c-0.369-0.256-0.592-0.593-0.666-1.01c-0.105-0.576,0.092-1.203,0.589-1.886c0.495-0.685,1.214-1.406,2.156-2.169
		c-0.665-0.688-1.548-1.323-2.649-1.906C240.521,79.471,239.515,79.045,238.604,78.778z M245.211,83.57
		c-0.057-0.313-0.127-0.543-0.207-0.69c-0.803,0.63-1.416,1.185-1.842,1.667c-0.426,0.481-0.604,0.903-0.539,1.27
		c0.057,0.313,0.242,0.44,0.556,0.385c0.782-0.143,1.343-0.473,1.682-0.991C245.196,84.691,245.315,84.144,245.211,83.57z"/>
	<path fill="#FFFFFF" d="M256.066,75.627c-0.227-0.067-0.304-0.269-0.229-0.605c0.072-0.337,0.249-0.476,0.53-0.418
		c0.962,0.258,2.042,0.721,3.244,1.395c1.198,0.673,2.197,1.423,2.993,2.249c1.509-1.189,3.254-2.354,5.231-3.492
		c1.979-1.136,3.819-2.21,5.525-3.22c0.346-0.168,0.596-0.12,0.753,0.147c0.156,0.269,0.118,0.505-0.115,0.708
		c-1.652,0.999-3.474,2.111-5.463,3.331c-1.99,1.222-3.729,2.343-5.215,3.366c0.232,0.39,0.381,0.768,0.447,1.134
		c0.16,0.887-0.014,1.713-0.523,2.479c-0.507,0.766-1.311,1.248-2.406,1.445c-0.418,0.075-0.813-0.015-1.183-0.273
		c-0.369-0.256-0.591-0.592-0.666-1.01c-0.105-0.576,0.092-1.203,0.589-1.886c0.495-0.685,1.214-1.406,2.156-2.169
		c-0.664-0.688-1.547-1.323-2.648-1.906C257.984,76.32,256.977,75.894,256.066,75.627z M262.673,80.418
		c-0.057-0.313-0.127-0.543-0.205-0.69c-0.804,0.631-1.418,1.185-1.844,1.667c-0.426,0.48-0.604,0.903-0.539,1.27
		c0.058,0.313,0.242,0.44,0.556,0.384c0.784-0.142,1.343-0.471,1.682-0.99C262.658,81.54,262.777,80.993,262.673,80.418z"/>
</g>
</svg>
